<svg width="340" height="330" viewBox="0 0 340 330" fill="none" xmlns="http://www.w3.org/2000/svg">
<path d="M284.5 192.344C312.943 192.344 336 169.881 336 142.172C336 114.463 312.943 92 284.5 92C256.057 92 233 114.463 233 142.172C233 169.881 256.057 192.344 284.5 192.344Z" fill="#B1B4C5"/>
<path d="M284.5 192.344C312.943 192.344 336 169.881 336 142.172C336 114.463 312.943 92 284.5 92C256.057 92 233 114.463 233 142.172C233 169.881 256.057 192.344 284.5 192.344Z" fill="url(#paint0_linear_1286_78)"/>
<path d="M284.5 182.517C306.335 182.517 324.035 164.917 324.035 143.207C324.035 121.497 306.335 103.897 284.5 103.897C262.665 103.897 244.965 121.497 244.965 143.207C244.965 164.917 262.665 182.517 284.5 182.517Z" fill="#E1E4ED"/>
<path d="M299.861 133.03C299.583 132.921 299.285 132.873 298.987 132.89C298.582 132.918 298.255 133.082 298.062 133.35C296.922 134.945 295.988 137.957 295.235 140.378C294.89 141.497 294.425 142.994 294.09 143.705C293.74 141.714 294.135 134.418 294.289 131.609L294.291 131.563C294.398 129.611 294.412 129.269 294.389 129.119C294.219 128.049 293.79 127.345 293.111 127.031C292.425 126.711 291.534 126.853 290.574 127.43C290.093 127.72 289.96 128.718 289.546 133.24L289.545 133.26C289.317 135.745 288.794 141.466 288.15 142.419C287.423 141.086 286.422 133.512 285.99 130.234C285.689 127.938 285.513 126.62 285.394 126.222C285.145 125.388 284.094 124.678 283.054 124.639C282.187 124.596 281.476 125.036 281.137 125.801C280.502 126.506 280.727 128.846 281.427 134.387C281.762 137.024 282.451 142.471 282.017 143.082C281.152 142.988 279.667 139.576 277.603 132.938C277.023 131.078 276.844 130.52 276.666 130.275C276.316 129.422 275.124 128.765 274.056 128.839C273.964 128.845 273.876 128.857 273.788 128.874C273.228 128.984 271.952 129.499 272.224 131.872C272.978 135.162 273.797 137.577 274.591 139.922L274.607 139.968C275.083 141.372 275.532 142.699 275.95 144.172C276.934 147.648 276.551 149.805 276.546 149.83C276.514 150.052 276.446 150.187 276.342 150.235C276.298 150.254 276.251 150.264 276.203 150.266C275.892 150.288 275.423 150.081 275.183 149.947C274.632 148.896 271.89 143.885 269.405 143.19L269.315 143.164L269.225 143.172C268.314 143.258 267.644 143.602 267.234 144.195C266.585 145.132 266.854 146.325 266.919 146.564L266.955 146.65C266.975 146.686 268.968 150.314 269.277 152.002C269.543 153.449 270.919 155.017 272.025 156.277L272.071 156.328C272.431 156.741 272.743 157.097 272.988 157.427C276.198 160.77 281.275 163.583 281.316 163.606C281.949 164.072 282.301 164.523 282.339 164.912C282.356 165.058 282.315 165.205 282.225 165.322L282.115 165.438L282.817 166.119L296.209 165.179L296.78 162.566C298.546 155.186 298.177 148.894 298.171 148.852C298.178 148.62 298.673 146.382 299.071 144.572L299.082 144.526C299.876 140.923 300.862 136.439 301.052 134.733C301.134 134.003 300.666 133.334 299.862 133.03H299.861Z" fill="#8A90AC"/>
<path d="M51.5 197C79.9427 197 103 173.495 103 144.5C103 115.505 79.9427 92 51.5 92C23.0573 92 0 115.505 0 144.5C0 173.495 23.0573 197 51.5 197Z" fill="#B1B4C5"/>
<path d="M51.5 192.344C79.9427 192.344 103 169.881 103 142.172C103 114.463 79.9427 92 51.5 92C23.0573 92 0 114.463 0 142.172C0 169.881 23.0573 192.344 51.5 192.344Z" fill="url(#paint1_linear_1286_78)"/>
<path d="M51.5 182.517C73.3345 182.517 91.035 164.917 91.035 143.207C91.035 121.497 73.3345 103.897 51.5 103.897C29.6654 103.897 11.965 121.497 11.965 143.207C11.965 164.917 29.6654 182.517 51.5 182.517Z" fill="#E1E4ED"/>
<path d="M68.933 146.218L68.32 145.608C66.855 144.152 64.46 143.834 62.673 144.856L58.853 147.026L59.65 129.644C59.6473 128.941 59.3659 128.268 58.8673 127.772C58.3688 127.276 57.694 126.999 56.991 127C56.674 127 56.37 127.056 56.087 127.158L56.182 126.225C56.182 124.751 54.971 123.552 53.484 123.552C52.109 123.552 50.956 124.577 50.81 125.892L48.36 140.613C48.328 140.813 47.979 140.793 47.942 140.667L45.047 128.865C44.8889 128.328 44.5614 127.856 44.1132 127.519C43.665 127.183 43.1202 127.001 42.56 127C41.766 127 41.027 127.356 40.533 127.975C40.29 128.278 40.1196 128.632 40.0346 129.011C39.9497 129.39 39.9526 129.783 40.043 130.161L40.606 132.537C40.2848 132.512 39.9619 132.553 39.657 132.657C39.1046 132.838 38.635 133.21 38.3322 133.707C38.0295 134.203 37.9135 134.791 38.005 135.365L39.708 145.104C39.708 148.946 40.386 151.789 40.954 153.496C41.278 154.47 41.442 155.495 41.442 156.541C41.442 157.452 41.315 158.359 41.062 159.234L39.742 163.833C39.7056 163.962 39.6996 164.097 39.7244 164.228C39.7491 164.359 39.8041 164.483 39.8848 164.59C39.9656 164.696 40.07 164.782 40.1897 164.842C40.3095 164.901 40.4414 164.931 40.575 164.931H56.182C56.3188 164.931 56.4536 164.899 56.5754 164.836C56.6972 164.774 56.8026 164.684 56.8829 164.573C56.9632 164.463 57.0161 164.334 57.0373 164.199C57.0586 164.064 57.0475 163.926 57.005 163.796C56.996 163.774 56.271 161.548 56.957 158.52C57.827 157.817 60.874 155.354 61.968 154.36C63.777 152.718 68.732 147.644 68.942 147.428C69.1007 147.266 69.1888 147.048 69.1871 146.821C69.1854 146.594 69.0941 146.378 68.933 146.218V146.218Z" fill="#8A90AC"/>
<path d="M168.5 105C196.943 105 220 81.4949 220 52.5C220 23.5051 196.943 0 168.5 0C140.057 0 117 23.5051 117 52.5C117 81.4949 140.057 105 168.5 105Z" fill="#B1B4C5"/>
<path d="M168.5 100.344C196.943 100.344 220 77.8812 220 50.172C220 22.4628 196.943 0 168.5 0C140.057 0 117 22.4628 117 50.172C117 77.8812 140.057 100.344 168.5 100.344Z" fill="url(#paint2_linear_1286_78)"/>
<path d="M168.5 90.517C190.335 90.517 208.035 72.9173 208.035 51.207C208.035 29.4967 190.335 11.897 168.5 11.897C146.665 11.897 128.965 29.4967 128.965 51.207C128.965 72.9173 146.665 90.517 168.5 90.517Z" fill="#E1E4ED"/>
<path d="M158.179 50.871L162.45 44.901C160.675 44.606 157.415 44.541 154.745 47.196C150.537 51.38 148.832 60.421 148.477 62.609L159.173 73.245C161.099 73.081 169.625 71.949 177.84 63.781C177.927 63.604 179.928 62.134 178.292 60.507C177.512 59.731 176.219 59.745 175.421 60.539C175.328 60.6349 175.217 60.7114 175.094 60.764C174.971 60.8166 174.839 60.8444 174.706 60.8457C174.572 60.847 174.44 60.8218 174.316 60.7716C174.192 60.7214 174.08 60.6471 173.985 60.553C173.89 60.4593 173.816 60.3475 173.765 60.2244C173.714 60.1013 173.689 59.9692 173.69 59.8361C173.692 59.703 173.72 59.5714 173.773 59.4493C173.826 59.3272 173.903 59.2169 173.999 59.125L176.902 56.239C178.378 54.772 176.987 52.298 174.928 52.892L172.551 54.915C172.347 55.091 172.082 55.1793 171.813 55.1607C171.544 55.1422 171.294 55.0183 171.116 54.816C170.747 54.392 170.826 53.749 171.246 53.387C179.547 46.145 178.336 47.017 183.676 42.04C185.672 40.388 183.161 37.465 181.195 39.139L168.275 50.691C168.09 50.848 167.854 50.933 167.611 50.9304C167.369 50.9278 167.135 50.8379 166.953 50.677C166.526 50.31 166.516 49.782 166.795 49.365L175.807 35.434C177.125 33.66 174.532 31.69 173.144 33.478L159.819 52.008C159.743 52.1171 159.646 52.21 159.534 52.2815C159.421 52.3529 159.296 52.4015 159.165 52.4243C159.034 52.4472 158.9 52.4439 158.77 52.4147C158.64 52.3855 158.518 52.3309 158.409 52.254C158.301 52.1797 158.21 52.0845 158.14 51.9741C158.07 51.8636 158.023 51.7403 158.001 51.6112C157.98 51.4822 157.984 51.3502 158.015 51.2231C158.045 51.0959 158.101 50.9762 158.179 50.871V50.871Z" fill="#8A90AC"/>
<path d="M238.5 330C266.943 330 290 306.495 290 277.5C290 248.505 266.943 225 238.5 225C210.057 225 187 248.505 187 277.5C187 306.495 210.057 330 238.5 330Z" fill="#B1B4C5"/>
<path d="M238.5 325.344C266.943 325.344 290 302.881 290 275.172C290 247.463 266.943 225 238.5 225C210.057 225 187 247.463 187 275.172C187 302.881 210.057 325.344 238.5 325.344Z" fill="url(#paint3_linear_1286_78)"/>
<path d="M238.5 315.517C260.335 315.517 278.035 297.917 278.035 276.207C278.035 254.497 260.335 236.897 238.5 236.897C216.665 236.897 198.965 254.497 198.965 276.207C198.965 297.917 216.665 315.517 238.5 315.517Z" fill="#E1E4ED"/>
<path d="M253.815 270.562C253.36 264.818 246.901 265.405 246.901 265.405C244.175 260.605 239.917 264.082 239.917 264.082C236.645 259.378 232.543 263.737 232.543 263.737C225.471 262.975 225.745 268.75 225.745 268.75C225.578 270.586 226.741 276.265 226.741 276.265C225.692 272.992 223.416 275.709 223.416 275.709C220.619 280.021 222.725 282.382 222.725 282.382C226.51 286.813 234.579 292.132 234.579 292.132C237.499 293.803 236.264 295.293 236.264 295.293L253.934 292.377L254.341 289.031C257.027 280.917 253.816 270.561 253.816 270.561L253.815 270.562Z" fill="#8A90AC"/>
<path d="M97.5 330C125.943 330 149 306.495 149 277.5C149 248.505 125.943 225 97.5 225C69.0573 225 46 248.505 46 277.5C46 306.495 69.0573 330 97.5 330Z" fill="#B1B4C5"/>
<path d="M97.5 325.344C125.943 325.344 149 302.881 149 275.172C149 247.463 125.943 225 97.5 225C69.0573 225 46 247.463 46 275.172C46 302.881 69.0573 325.344 97.5 325.344Z" fill="url(#paint4_linear_1286_78)"/>
<path d="M97.5 315.517C119.335 315.517 137.035 297.917 137.035 276.207C137.035 254.497 119.335 236.897 97.5 236.897C75.6654 236.897 57.965 254.497 57.965 276.207C57.965 297.917 75.6654 315.517 97.5 315.517Z" fill="#E1E4ED"/>
<path d="M110.275 258.413C112.569 256.994 114.767 256.687 116.465 257.548C120.271 259.478 119.72 266.661 118.163 269.774C117.283 271.531 115.725 272.814 113.526 273.595C112.674 276.29 111.478 278.606 109.951 280.522C110.963 281.367 112.24 281.828 113.558 281.826H113.622L115.768 279.71C116.029 279.454 116.38 279.311 116.746 279.311C117.112 279.311 117.463 279.454 117.724 279.71C117.852 279.836 117.954 279.986 118.024 280.151C118.094 280.317 118.129 280.495 118.129 280.674C118.129 280.854 118.094 281.032 118.024 281.198C117.954 281.363 117.852 281.513 117.724 281.639L117.534 281.826H117.965C118.729 281.826 119.348 282.436 119.348 283.19C119.348 283.943 118.728 284.553 117.965 284.553H117.533L117.723 284.741C117.851 284.867 117.953 285.017 118.023 285.182C118.092 285.348 118.128 285.525 118.128 285.705C118.128 285.884 118.092 286.062 118.023 286.228C117.953 286.393 117.851 286.543 117.723 286.669C117.453 286.936 117.099 287.069 116.745 287.069C116.391 287.069 116.037 286.936 115.767 286.669L113.621 284.553H113.557C111.544 284.556 109.597 283.837 108.07 282.526C107.775 282.794 107.471 283.051 107.157 283.296C104.507 285.366 101.265 286.571 97.477 286.9C97.955 288.335 98.048 289.89 97.721 291.407L97.708 291.47L99.359 294.068C99.5587 294.382 99.6268 294.762 99.5486 295.126C99.4704 295.489 99.2521 295.808 98.941 296.012C98.7871 296.111 98.6151 296.179 98.4348 296.212C98.2546 296.244 98.0697 296.241 97.8908 296.201C97.7119 296.162 97.5426 296.088 97.3926 295.983C97.2427 295.877 97.115 295.744 97.017 295.589L96.871 295.359L96.778 295.789C96.7398 295.968 96.6667 296.138 96.5629 296.289C96.459 296.44 96.3264 296.57 96.1726 296.669C96.0188 296.769 95.8469 296.838 95.6666 296.871C95.4864 296.905 95.3013 296.902 95.122 296.864C94.7593 296.782 94.4437 296.56 94.2442 296.247C94.0446 295.933 93.9773 295.553 94.057 295.19L94.15 294.76L93.922 294.908C93.275 295.328 92.414 295.139 91.998 294.485C91.7983 294.171 91.7304 293.791 91.8088 293.427C91.8872 293.063 92.1057 292.745 92.417 292.541L94.987 290.871L95.001 290.808C95.2805 289.512 95.1013 288.159 94.494 286.981C93.354 286.948 92.2167 286.853 91.087 286.698C87.759 286.248 85.872 287.714 85.373 288.174C81.453 291.787 80.694 298.172 80.687 298.236C80.6487 298.578 80.4857 298.895 80.2292 299.125C79.9727 299.355 79.6405 299.482 79.296 299.483C79.0674 299.483 78.8424 299.427 78.6405 299.319C78.4387 299.212 78.2661 299.057 78.138 298.868C78.075 298.775 76.6 296.573 75.953 293.465C75.074 289.245 76.122 285.372 78.983 282.268C80.6807 280.433 82.818 279.062 85.193 278.283L84.901 278.359C84.1501 278.01 83.332 277.829 82.504 277.829H82.44L80.286 279.945C80.015 280.212 79.659 280.345 79.304 280.345C78.949 280.345 78.594 280.212 78.322 279.945C78.1934 279.819 78.0912 279.67 78.0215 279.504C77.9517 279.338 77.9158 279.161 77.9158 278.981C77.9158 278.801 77.9517 278.623 78.0215 278.458C78.0912 278.292 78.1934 278.142 78.322 278.017L78.513 277.829H78.08C77.313 277.829 76.691 277.219 76.691 276.466C76.691 275.712 77.313 275.102 78.08 275.102H78.513L78.323 274.914C78.1944 274.788 78.0922 274.639 78.0225 274.473C77.9527 274.307 77.9168 274.13 77.9168 273.95C77.9168 273.77 77.9527 273.592 78.0225 273.427C78.0922 273.261 78.1944 273.111 78.323 272.986C78.5855 272.73 78.9377 272.587 79.3045 272.587C79.6712 272.587 80.0234 272.73 80.286 272.986L82.44 275.102H82.504C84.849 275.102 87.072 276.062 88.656 277.745L88.502 277.587C89.7676 277.461 91.0436 277.483 92.304 277.654C95.817 278.129 98.69 277.641 100.908 276.198C99.6585 274.652 98.9791 272.723 98.984 270.735V270.67L96.86 268.48C96.6028 268.212 96.4593 267.854 96.4593 267.482C96.4593 267.111 96.6028 266.753 96.86 266.485C96.9851 266.354 97.1353 266.25 97.3017 266.179C97.468 266.108 97.6471 266.072 97.828 266.072C98.0089 266.072 98.1879 266.108 98.3543 266.179C98.5206 266.25 98.6709 266.354 98.796 266.485L98.983 266.679V266.239C98.983 265.459 99.596 264.828 100.353 264.828C101.108 264.828 101.721 265.459 101.721 266.238V266.679L101.909 266.485C102.034 266.354 102.184 266.251 102.351 266.18C102.517 266.109 102.696 266.072 102.876 266.072C103.057 266.072 103.236 266.109 103.402 266.18C103.569 266.251 103.719 266.354 103.844 266.485C104.659 267.325 104.071 268.247 103.844 268.481L101.721 270.67V270.735C101.721 272.067 102.171 273.341 102.98 274.353C103.982 273.155 104.77 271.65 105.34 269.839C104.923 268.686 104.275 265.957 105.929 262.861C106.795 261.239 108.46 259.535 110.274 258.413H110.275Z" fill="#8A90AC"/>
<path d="M104.26 68.0706L81.2587 87.3709C80.6947 87.8442 80.6212 88.685 81.0944 89.2489L81.095 89.2497C81.5682 89.8136 82.409 89.8872 82.973 89.414L105.974 70.1136C106.538 69.6404 106.612 68.7996 106.139 68.2357L106.138 68.2349C105.665 67.6709 104.824 67.5974 104.26 68.0706Z" fill="#B1B4C5"/>
<path fill-rule="evenodd" clip-rule="evenodd" d="M97.8333 66.5132L105.877 67.3603C106.55 67.4312 107.043 68.026 106.991 68.702C106.978 68.86 106.934 69.0138 106.861 69.1544C106.788 69.295 106.688 69.4196 106.566 69.5208C106.444 69.622 106.303 69.6978 106.151 69.7436C105.999 69.7895 105.84 69.8046 105.683 69.7879L97.6394 68.9408C97.3153 68.9067 97.0175 68.7473 96.8093 68.4966C96.6012 68.2459 96.4993 67.9238 96.5252 67.599C96.5379 67.4411 96.582 67.2873 96.655 67.1467C96.728 67.0061 96.8284 66.8815 96.9503 66.7803C97.0722 66.6791 97.2131 66.6033 97.3648 66.5575C97.5165 66.5116 97.6758 66.4965 97.8333 66.5132V66.5132Z" fill="#B1B4C5"/>
<path fill-rule="evenodd" clip-rule="evenodd" d="M103.967 76.4818L104.529 68.4129C104.54 68.2549 104.582 68.1006 104.654 67.9593C104.726 67.8179 104.825 67.6924 104.946 67.59C105.067 67.4875 105.207 67.4104 105.358 67.363C105.509 67.3156 105.668 67.299 105.826 67.314C106.5 67.3787 107.002 67.9684 106.954 68.6442L106.392 76.7132C106.381 76.8712 106.338 77.0254 106.267 77.1668C106.195 77.3081 106.096 77.4337 105.975 77.5361C105.854 77.6385 105.714 77.7157 105.563 77.7631C105.412 77.8105 105.253 77.8271 105.095 77.812C104.771 77.7812 104.471 77.6249 104.26 77.3764C104.05 77.1279 103.944 76.8069 103.967 76.4818Z" fill="#B1B4C5"/>
<path d="M252.26 87.9299L229.258 68.6295C228.694 68.1563 228.621 67.3155 229.094 66.7516L229.095 66.7508C229.568 66.1868 230.409 66.1133 230.973 66.5865L253.974 85.8868C254.538 86.3601 254.611 87.2009 254.138 87.7648L254.138 87.7656C253.664 88.3295 252.824 88.4031 252.26 87.9299Z" fill="#B1B4C5"/>
<path fill-rule="evenodd" clip-rule="evenodd" d="M245.833 89.4873L253.876 88.6402C254.549 88.5693 255.043 87.9745 254.99 87.2984C254.978 87.1405 254.934 86.9867 254.861 86.8461C254.788 86.7055 254.687 86.5809 254.565 86.4797C254.443 86.3785 254.302 86.3027 254.151 86.2569C253.999 86.211 253.84 86.1959 253.682 86.2126L245.639 87.0597C245.315 87.0938 245.017 87.2532 244.809 87.5039C244.601 87.7546 244.499 88.0767 244.525 88.4014C244.538 88.5594 244.582 88.7132 244.655 88.8538C244.728 88.9944 244.828 89.119 244.95 89.2202C245.072 89.3214 245.213 89.3972 245.364 89.443C245.516 89.4889 245.675 89.5039 245.833 89.4873V89.4873Z" fill="#B1B4C5"/>
<path fill-rule="evenodd" clip-rule="evenodd" d="M251.967 79.5187L252.528 87.5876C252.54 87.7456 252.582 87.8999 252.654 88.0412C252.725 88.1825 252.824 88.3081 252.945 88.4105C253.066 88.5129 253.206 88.5901 253.358 88.6375C253.509 88.6849 253.668 88.7015 253.826 88.6864C254.5 88.6218 255.001 88.0321 254.954 87.3562L254.392 79.2873C254.381 79.1293 254.338 78.975 254.266 78.8337C254.195 78.6924 254.096 78.5668 253.975 78.4644C253.854 78.362 253.714 78.2848 253.563 78.2374C253.411 78.19 253.252 78.1734 253.095 78.1885C252.77 78.2193 252.471 78.3756 252.26 78.6241C252.049 78.8726 251.944 79.1936 251.967 79.5187Z" fill="#B1B4C5"/>
<path d="M281.224 229.871L299.294 205.891C299.737 205.303 299.62 204.467 299.032 204.024L299.031 204.023C298.443 203.58 297.607 203.698 297.164 204.286L279.094 228.266C278.651 228.853 278.769 229.689 279.357 230.132L279.357 230.133C279.945 230.576 280.781 230.459 281.224 229.871Z" fill="#B1B4C5"/>
<path fill-rule="evenodd" clip-rule="evenodd" d="M287.837 229.943L279.809 230.927C279.137 231.009 278.522 230.54 278.421 229.87C278.398 229.713 278.407 229.553 278.446 229.4C278.486 229.246 278.555 229.102 278.651 228.976C278.747 228.85 278.868 228.745 279.005 228.666C279.143 228.587 279.294 228.537 279.452 228.517L287.479 227.534C287.803 227.494 288.129 227.582 288.388 227.78C288.647 227.977 288.819 228.268 288.867 228.59C288.89 228.747 288.882 228.907 288.842 229.06C288.803 229.214 288.733 229.358 288.637 229.484C288.541 229.61 288.42 229.715 288.283 229.794C288.146 229.873 287.994 229.923 287.837 229.943V229.943Z" fill="#B1B4C5"/>
<path fill-rule="evenodd" clip-rule="evenodd" d="M279.618 221.609L280.885 229.598C280.91 229.754 280.903 229.914 280.865 230.068C280.827 230.222 280.759 230.366 280.664 230.493C280.569 230.62 280.45 230.727 280.314 230.807C280.177 230.887 280.026 230.939 279.869 230.96C279.197 231.049 278.576 230.587 278.47 229.918L277.203 221.929C277.178 221.773 277.185 221.613 277.223 221.459C277.261 221.305 277.329 221.161 277.424 221.034C277.518 220.907 277.638 220.8 277.774 220.72C277.911 220.64 278.062 220.588 278.219 220.567C278.542 220.524 278.869 220.609 279.131 220.803C279.392 220.998 279.567 221.287 279.618 221.609Z" fill="#B1B4C5"/>
<path d="M154.641 303.667H184.667C185.403 303.667 186 304.264 186 305V305.001C186 305.737 185.403 306.334 184.667 306.334H154.641C153.905 306.334 153.308 305.737 153.308 305.001V305C153.308 304.264 153.905 303.667 154.641 303.667Z" fill="#B1B4C5"/>
<path fill-rule="evenodd" clip-rule="evenodd" d="M158.563 298.343L152.946 304.162C152.476 304.649 152.48 305.422 152.955 305.906C153.066 306.019 153.199 306.108 153.345 306.169C153.491 306.23 153.648 306.261 153.807 306.26C153.965 306.259 154.122 306.227 154.268 306.164C154.413 306.102 154.545 306.011 154.655 305.897L160.272 300.078C160.498 299.844 160.624 299.53 160.622 299.204C160.621 298.878 160.492 298.566 160.263 298.334C160.152 298.221 160.019 298.132 159.873 298.071C159.727 298.01 159.57 297.979 159.411 297.98C159.253 297.981 159.096 298.013 158.95 298.076C158.805 298.138 158.673 298.229 158.563 298.343V298.343Z" fill="#B1B4C5"/>
<path fill-rule="evenodd" clip-rule="evenodd" d="M160.272 309.922L154.655 304.102C154.545 303.988 154.413 303.897 154.268 303.835C154.122 303.773 153.965 303.74 153.807 303.74C153.648 303.739 153.491 303.77 153.345 303.831C153.199 303.892 153.066 303.981 152.955 304.094C152.48 304.577 152.475 305.351 152.946 305.838L158.563 311.658C158.673 311.772 158.805 311.863 158.951 311.925C159.096 311.987 159.253 312.02 159.411 312.02C159.57 312.021 159.727 311.99 159.873 311.929C160.019 311.868 160.152 311.779 160.263 311.666C160.492 311.434 160.621 311.122 160.622 310.796C160.624 310.47 160.498 310.156 160.272 309.922Z" fill="#B1B4C5"/>
<path d="M40.2242 206.129L58.2943 230.109C58.7374 230.697 58.6199 231.533 58.032 231.976L58.0312 231.976C57.4432 232.419 56.6074 232.302 56.1644 231.714L38.0943 207.734C37.6512 207.146 37.7687 206.31 38.3566 205.867L38.3574 205.867C38.9454 205.424 39.7812 205.541 40.2242 206.129Z" fill="#B1B4C5"/>
<path fill-rule="evenodd" clip-rule="evenodd" d="M46.8365 206.057L38.8088 205.073C38.1371 204.991 37.5221 205.459 37.4214 206.13C37.3982 206.287 37.4066 206.447 37.4461 206.6C37.4856 206.753 37.5554 206.897 37.6514 207.023C37.7475 207.149 37.8677 207.255 38.0052 207.334C38.1426 207.413 38.2944 207.463 38.4517 207.482L46.4794 208.466C46.8028 208.506 47.1289 208.418 47.3881 208.22C47.6473 208.023 47.819 207.732 47.8668 207.409C47.89 207.253 47.8816 207.093 47.8421 206.94C47.8026 206.786 47.7328 206.642 47.6368 206.516C47.5408 206.39 47.4205 206.285 47.283 206.206C47.1456 206.127 46.9938 206.076 46.8365 206.057V206.057Z" fill="#B1B4C5"/>
<path fill-rule="evenodd" clip-rule="evenodd" d="M38.6176 214.391L39.8853 206.402C39.9101 206.246 39.9033 206.086 39.8653 205.932C39.8274 205.778 39.759 205.633 39.6642 205.507C39.5695 205.38 39.4503 205.273 39.3136 205.193C39.177 205.112 39.0257 205.06 38.8686 205.04C38.197 204.951 37.5758 205.413 37.4703 206.082L36.2027 214.071C36.1779 214.227 36.1847 214.387 36.2226 214.541C36.2606 214.695 36.329 214.839 36.4237 214.966C36.5185 215.093 36.6377 215.2 36.7743 215.28C36.911 215.36 37.0623 215.412 37.2194 215.433C37.5424 215.476 37.8693 215.391 38.1306 215.196C38.3918 215.002 38.5666 214.712 38.6176 214.391Z" fill="#B1B4C5"/>
<path d="M127.641 137.667H209.975C210.711 137.667 211.308 138.264 211.308 139V139.001C211.308 139.737 210.711 140.334 209.975 140.334H127.641C126.905 140.334 126.308 139.737 126.308 139.001V139C126.308 138.264 126.905 137.667 127.641 137.667Z" fill="#B1B4C5"/>
<path fill-rule="evenodd" clip-rule="evenodd" d="M131.563 132.343L125.946 138.162C125.476 138.649 125.48 139.422 125.955 139.906C126.066 140.019 126.199 140.108 126.345 140.169C126.492 140.23 126.649 140.261 126.807 140.26C126.965 140.259 127.122 140.227 127.268 140.164C127.413 140.102 127.545 140.011 127.655 139.897L133.272 134.078C133.498 133.844 133.624 133.53 133.622 133.204C133.621 132.878 133.492 132.566 133.263 132.334C133.152 132.221 133.019 132.132 132.873 132.071C132.727 132.01 132.57 131.979 132.411 131.98C132.253 131.981 132.096 132.013 131.95 132.076C131.805 132.138 131.673 132.229 131.563 132.343V132.343Z" fill="#B1B4C5"/>
<path fill-rule="evenodd" clip-rule="evenodd" d="M133.272 143.922L127.655 138.102C127.545 137.988 127.413 137.897 127.268 137.835C127.122 137.773 126.965 137.74 126.807 137.74C126.648 137.739 126.491 137.77 126.345 137.831C126.199 137.892 126.066 137.981 125.955 138.094C125.48 138.577 125.475 139.351 125.946 139.838L131.563 145.658C131.673 145.772 131.805 145.863 131.951 145.925C132.096 145.987 132.253 146.02 132.411 146.02C132.57 146.021 132.727 145.99 132.873 145.929C133.019 145.868 133.152 145.779 133.263 145.666C133.492 145.434 133.621 145.122 133.622 144.796C133.624 144.47 133.498 144.156 133.272 143.922V143.922Z" fill="#B1B4C5"/>
<path d="M162.054 149.836C162.054 150.216 161.93 150.506 161.682 150.706C161.438 150.902 161.122 151 160.734 151H159.39C159.37 151 159.352 150.994 159.336 150.982C159.324 150.966 159.318 150.948 159.318 150.928V146.872C159.318 146.852 159.324 146.836 159.336 146.824C159.352 146.808 159.37 146.8 159.39 146.8H160.644C161.072 146.8 161.404 146.896 161.64 147.088C161.876 147.276 161.994 147.564 161.994 147.952C161.994 148.348 161.84 148.634 161.532 148.81C161.512 148.822 161.51 148.834 161.526 148.846C161.878 149.046 162.054 149.376 162.054 149.836ZM160.194 147.526C160.174 147.526 160.164 147.536 160.164 147.556V148.498C160.164 148.518 160.174 148.528 160.194 148.528H160.65C160.81 148.528 160.936 148.484 161.028 148.396C161.12 148.308 161.166 148.186 161.166 148.03C161.166 147.87 161.12 147.746 161.028 147.658C160.94 147.57 160.814 147.526 160.65 147.526H160.194ZM160.698 150.268C160.858 150.268 160.982 150.222 161.07 150.13C161.162 150.034 161.208 149.9 161.208 149.728C161.208 149.556 161.162 149.422 161.07 149.326C160.982 149.226 160.858 149.176 160.698 149.176H160.194C160.174 149.176 160.164 149.186 160.164 149.206V150.238C160.164 150.258 160.174 150.268 160.194 150.268H160.698ZM165.138 147.454C165.138 147.474 165.13 147.492 165.114 147.508C165.102 147.52 165.086 147.526 165.066 147.526H163.458C163.438 147.526 163.428 147.536 163.428 147.556V148.492C163.428 148.512 163.438 148.522 163.458 148.522H164.46C164.48 148.522 164.496 148.53 164.508 148.546C164.524 148.558 164.532 148.574 164.532 148.594V149.176C164.532 149.196 164.524 149.214 164.508 149.23C164.496 149.242 164.48 149.248 164.46 149.248H163.458C163.438 149.248 163.428 149.258 163.428 149.278V150.244C163.428 150.264 163.438 150.274 163.458 150.274H165.066C165.086 150.274 165.102 150.282 165.114 150.298C165.13 150.31 165.138 150.326 165.138 150.346V150.928C165.138 150.948 165.13 150.966 165.114 150.982C165.102 150.994 165.086 151 165.066 151H162.654C162.634 151 162.616 150.994 162.6 150.982C162.588 150.966 162.582 150.948 162.582 150.928V146.872C162.582 146.852 162.588 146.836 162.6 146.824C162.616 146.808 162.634 146.8 162.654 146.8H165.066C165.086 146.8 165.102 146.808 165.114 146.824C165.13 146.836 165.138 146.852 165.138 146.872V147.454ZM167.913 151C167.869 151 167.841 150.98 167.829 150.94L167.691 150.352C167.687 150.336 167.677 150.328 167.661 150.328H166.539C166.523 150.328 166.513 150.336 166.509 150.352L166.371 150.94C166.359 150.98 166.333 151 166.293 151H165.567C165.515 151 165.495 150.974 165.507 150.922L166.587 146.86C166.599 146.82 166.627 146.8 166.671 146.8H167.541C167.585 146.8 167.613 146.82 167.625 146.86L168.705 150.922L168.711 150.946C168.711 150.982 168.689 151 168.645 151H167.913ZM166.671 149.638C166.667 149.65 166.669 149.66 166.677 149.668C166.685 149.672 166.693 149.674 166.701 149.674H167.493C167.501 149.674 167.509 149.672 167.517 149.668C167.525 149.66 167.527 149.65 167.523 149.638L167.109 147.898C167.105 147.882 167.099 147.874 167.091 147.874C167.083 147.874 167.077 147.882 167.073 147.898L166.671 149.638ZM171.326 146.8C171.346 146.8 171.362 146.808 171.374 146.824C171.39 146.836 171.398 146.852 171.398 146.872V147.46C171.398 147.48 171.39 147.498 171.374 147.514C171.362 147.526 171.346 147.532 171.326 147.532H170.414C170.394 147.532 170.384 147.542 170.384 147.562V150.928C170.384 150.948 170.376 150.966 170.36 150.982C170.348 150.994 170.332 151 170.312 151H169.61C169.59 151 169.572 150.994 169.556 150.982C169.544 150.966 169.538 150.948 169.538 150.928V147.562C169.538 147.542 169.528 147.532 169.508 147.532H168.626C168.606 147.532 168.588 147.526 168.572 147.514C168.56 147.498 168.554 147.48 168.554 147.46V146.872C168.554 146.852 168.56 146.836 168.572 146.824C168.588 146.808 168.606 146.8 168.626 146.8H171.326ZM173.117 151.048C172.841 151.048 172.599 151 172.391 150.904C172.183 150.804 172.021 150.666 171.905 150.49C171.793 150.31 171.737 150.104 171.737 149.872V149.716C171.737 149.696 171.743 149.68 171.755 149.668C171.771 149.652 171.789 149.644 171.809 149.644H172.499C172.519 149.644 172.535 149.652 172.547 149.668C172.563 149.68 172.571 149.696 172.571 149.716V149.83C172.571 149.97 172.623 150.088 172.727 150.184C172.831 150.276 172.971 150.322 173.147 150.322C173.303 150.322 173.421 150.282 173.501 150.202C173.585 150.122 173.627 150.02 173.627 149.896C173.627 149.804 173.601 149.726 173.549 149.662C173.497 149.594 173.423 149.532 173.327 149.476C173.235 149.416 173.091 149.336 172.895 149.236C172.655 149.116 172.459 149.004 172.307 148.9C172.155 148.796 172.025 148.662 171.917 148.498C171.809 148.334 171.755 148.136 171.755 147.904C171.755 147.672 171.809 147.47 171.917 147.298C172.029 147.122 172.185 146.988 172.385 146.896C172.585 146.8 172.813 146.752 173.069 146.752C173.337 146.752 173.575 146.804 173.783 146.908C173.991 147.008 174.153 147.15 174.269 147.334C174.385 147.518 174.443 147.73 174.443 147.97V148.09C174.443 148.11 174.435 148.128 174.419 148.144C174.407 148.156 174.391 148.162 174.371 148.162H173.681C173.661 148.162 173.643 148.156 173.627 148.144C173.615 148.128 173.609 148.11 173.609 148.09V147.982C173.609 147.838 173.559 147.718 173.459 147.622C173.359 147.526 173.223 147.478 173.051 147.478C172.907 147.478 172.793 147.516 172.709 147.592C172.629 147.664 172.589 147.766 172.589 147.898C172.589 147.99 172.613 148.07 172.661 148.138C172.709 148.206 172.783 148.272 172.883 148.336C172.983 148.396 173.135 148.476 173.339 148.576L173.465 148.648C173.697 148.776 173.877 148.888 174.005 148.984C174.137 149.076 174.247 149.194 174.335 149.338C174.423 149.482 174.467 149.656 174.467 149.86C174.467 150.224 174.343 150.514 174.095 150.73C173.851 150.942 173.525 151.048 173.117 151.048Z" fill="#B1B4C5"/>
<path d="M179.846 226.219L116.774 173.296C116.21 172.823 115.37 172.896 114.896 173.46L114.896 173.461C114.422 174.025 114.496 174.866 115.06 175.339L178.131 228.262C178.695 228.735 179.536 228.662 180.009 228.098L180.01 228.097C180.483 227.533 180.41 226.692 179.846 226.219Z" fill="#B1B4C5"/>
<path fill-rule="evenodd" clip-rule="evenodd" d="M180.264 219.62L180.826 227.688C180.873 228.363 180.373 228.952 179.698 229.018C179.54 229.033 179.381 229.016 179.23 228.969C179.079 228.921 178.939 228.844 178.818 228.742C178.697 228.639 178.598 228.513 178.527 228.372C178.455 228.231 178.413 228.076 178.402 227.918L177.839 219.85C177.817 219.525 177.922 219.204 178.133 218.956C178.343 218.707 178.643 218.551 178.967 218.52C179.125 218.505 179.284 218.522 179.435 218.569C179.586 218.617 179.726 218.694 179.847 218.796C179.968 218.899 180.067 219.024 180.139 219.166C180.21 219.307 180.253 219.462 180.264 219.62V219.62Z" fill="#B1B4C5"/>
<path fill-rule="evenodd" clip-rule="evenodd" d="M171.512 227.391L179.556 226.543C179.713 226.527 179.872 226.542 180.024 226.588C180.176 226.634 180.316 226.71 180.438 226.811C180.56 226.912 180.661 227.037 180.733 227.178C180.806 227.318 180.85 227.472 180.863 227.63C180.916 228.305 180.423 228.901 179.749 228.972L171.705 229.82C171.547 229.836 171.388 229.821 171.236 229.775C171.085 229.729 170.944 229.653 170.822 229.552C170.7 229.451 170.6 229.326 170.527 229.185C170.454 229.045 170.41 228.891 170.397 228.733C170.371 228.408 170.473 228.086 170.682 227.835C170.89 227.585 171.188 227.425 171.512 227.391V227.391Z" fill="#B1B4C5"/>
<path d="M149.408 190.456C149.163 190.747 148.882 190.89 148.564 190.884C148.251 190.877 147.946 190.749 147.648 190.499L146.619 189.636C146.603 189.623 146.594 189.607 146.589 189.587C146.59 189.567 146.597 189.549 146.61 189.534L149.217 186.427C149.23 186.412 149.245 186.403 149.262 186.402C149.284 186.4 149.303 186.405 149.318 186.418L150.279 187.224C150.607 187.499 150.8 187.786 150.857 188.085C150.917 188.381 150.822 188.677 150.573 188.974C150.318 189.278 150.016 189.398 149.667 189.335C149.644 189.331 149.635 189.339 149.64 189.358C149.781 189.738 149.703 190.104 149.408 190.456ZM149.468 187.491C149.452 187.478 149.438 187.479 149.425 187.495L148.82 188.216C148.807 188.232 148.808 188.246 148.824 188.259L149.173 188.552C149.296 188.655 149.42 188.702 149.547 188.694C149.674 188.685 149.788 188.621 149.888 188.502C149.991 188.379 150.036 188.255 150.022 188.128C150.011 188.004 149.943 187.89 149.817 187.784L149.468 187.491ZM148.091 189.916C148.214 190.018 148.338 190.063 148.465 190.049C148.597 190.035 148.719 189.961 148.829 189.83C148.94 189.698 148.991 189.566 148.982 189.433C148.979 189.3 148.916 189.182 148.793 189.079L148.407 188.755C148.392 188.742 148.378 188.743 148.365 188.759L147.702 189.549C147.689 189.565 147.69 189.579 147.705 189.592L148.091 189.916ZM153.301 190.614C153.288 190.629 153.271 190.638 153.248 190.64C153.231 190.641 153.215 190.635 153.2 190.623L151.968 189.589C151.953 189.576 151.938 189.577 151.926 189.593L151.324 190.31C151.311 190.325 151.312 190.339 151.328 190.352L152.095 190.996C152.111 191.009 152.118 191.025 152.117 191.045C152.121 191.065 152.117 191.082 152.104 191.097L151.73 191.543C151.717 191.559 151.699 191.567 151.677 191.569C151.66 191.571 151.644 191.565 151.629 191.552L150.861 190.908C150.846 190.895 150.832 190.896 150.819 190.912L150.198 191.652C150.185 191.667 150.186 191.681 150.201 191.694L151.433 192.728C151.449 192.74 151.456 192.757 151.455 192.777C151.459 192.796 151.455 192.814 151.442 192.829L151.068 193.275C151.055 193.29 151.037 193.299 151.015 193.301C150.998 193.302 150.982 193.297 150.967 193.284L149.119 191.733C149.104 191.721 149.094 191.704 149.089 191.685C149.09 191.665 149.097 191.647 149.11 191.632L151.717 188.525C151.73 188.51 151.745 188.501 151.762 188.5C151.784 188.498 151.803 188.503 151.819 188.516L153.666 190.066C153.682 190.079 153.689 190.096 153.688 190.116C153.692 190.135 153.688 190.153 153.675 190.168L153.301 190.614ZM153.148 195.114C153.114 195.086 153.105 195.052 153.122 195.014L153.394 194.475C153.401 194.46 153.399 194.448 153.387 194.437L152.527 193.716C152.515 193.706 152.502 193.705 152.489 193.715L152.005 194.077C151.97 194.1 151.937 194.098 151.907 194.073L151.351 193.606C151.311 193.573 151.312 193.54 151.355 193.508L154.793 191.09C154.828 191.067 154.862 191.07 154.896 191.098L155.563 191.658C155.596 191.686 155.605 191.719 155.588 191.757L153.805 195.563L153.794 195.586C153.771 195.613 153.742 195.613 153.709 195.585L153.148 195.114ZM153.072 193.272C153.061 193.279 153.056 193.288 153.057 193.299C153.061 193.307 153.066 193.314 153.072 193.319L153.678 193.828C153.685 193.833 153.692 193.837 153.701 193.839C153.712 193.838 153.72 193.832 153.725 193.82L154.526 192.221C154.533 192.206 154.534 192.196 154.527 192.191C154.521 192.186 154.512 192.188 154.498 192.198L153.072 193.272ZM158.462 194.091C158.478 194.104 158.485 194.12 158.484 194.14C158.488 194.159 158.484 194.177 158.471 194.192L158.093 194.643C158.08 194.658 158.063 194.667 158.04 194.669C158.023 194.67 158.007 194.664 157.992 194.651L157.293 194.065C157.278 194.052 157.264 194.054 157.251 194.069L155.087 196.647C155.074 196.663 155.057 196.671 155.034 196.673C155.017 196.675 155.001 196.669 154.986 196.656L154.448 196.205C154.433 196.192 154.423 196.176 154.418 196.157C154.419 196.137 154.426 196.119 154.439 196.104L156.603 193.525C156.616 193.51 156.614 193.496 156.599 193.483L155.923 192.916C155.908 192.903 155.898 192.887 155.894 192.867C155.895 192.847 155.902 192.83 155.915 192.815L156.293 192.364C156.305 192.349 156.32 192.34 156.337 192.339C156.36 192.337 156.379 192.342 156.394 192.355L158.462 194.091ZM157.103 198.496C156.892 198.318 156.738 198.126 156.64 197.919C156.545 197.709 156.509 197.499 156.534 197.289C156.564 197.079 156.653 196.886 156.802 196.708L156.903 196.588C156.915 196.573 156.93 196.565 156.947 196.563C156.97 196.561 156.989 196.567 157.004 196.58L157.533 197.023C157.548 197.036 157.555 197.052 157.554 197.072C157.558 197.092 157.554 197.109 157.541 197.125L157.468 197.212C157.378 197.319 157.342 197.443 157.36 197.583C157.381 197.721 157.458 197.846 157.593 197.959C157.713 198.059 157.829 198.105 157.941 198.095C158.057 198.087 158.155 198.036 158.235 197.941C158.294 197.871 158.324 197.794 158.325 197.712C158.329 197.626 158.312 197.531 158.275 197.427C158.243 197.322 158.184 197.168 158.098 196.965C157.991 196.719 157.913 196.507 157.864 196.33C157.814 196.152 157.801 195.966 157.823 195.771C157.846 195.576 157.932 195.39 158.081 195.212C158.23 195.034 158.401 194.914 158.595 194.852C158.794 194.789 158.999 194.787 159.212 194.845C159.427 194.9 159.632 195.01 159.828 195.174C160.033 195.346 160.182 195.539 160.275 195.753C160.37 195.963 160.403 196.176 160.373 196.391C160.344 196.607 160.252 196.806 160.098 196.99L160.021 197.082C160.008 197.098 159.99 197.106 159.968 197.108C159.951 197.11 159.935 197.104 159.919 197.091L159.391 196.648C159.375 196.635 159.365 196.619 159.361 196.599C159.362 196.579 159.369 196.561 159.382 196.546L159.451 196.463C159.544 196.353 159.583 196.229 159.568 196.091C159.553 195.953 159.479 195.829 159.348 195.719C159.237 195.626 159.126 195.582 159.012 195.586C158.905 195.59 158.809 195.642 158.724 195.743C158.665 195.814 158.632 195.891 158.625 195.974C158.618 196.057 158.632 196.155 158.667 196.268C158.705 196.378 158.771 196.537 158.863 196.745L158.913 196.881C159.008 197.128 159.074 197.33 159.11 197.486C159.152 197.641 159.161 197.802 159.136 197.969C159.111 198.136 159.032 198.297 158.901 198.454C158.667 198.732 158.386 198.875 158.057 198.881C157.734 198.886 157.416 198.758 157.103 198.496Z" fill="#B1B4C5"/>
<path d="M217.988 174.335L154.916 227.258C154.352 227.731 154.279 228.572 154.752 229.136L154.752 229.137C155.226 229.701 156.067 229.774 156.63 229.301L219.702 176.378C220.266 175.904 220.339 175.064 219.866 174.5L219.866 174.499C219.392 173.935 218.552 173.861 217.988 174.335Z" fill="#B1B4C5"/>
<path fill-rule="evenodd" clip-rule="evenodd" d="M211.561 172.777L219.604 173.624C220.277 173.695 220.771 174.29 220.718 174.966C220.706 175.124 220.662 175.278 220.589 175.419C220.516 175.559 220.415 175.684 220.293 175.785C220.172 175.886 220.031 175.962 219.879 176.008C219.727 176.054 219.568 176.069 219.41 176.052L211.367 175.205C211.043 175.171 210.745 175.011 210.537 174.761C210.329 174.51 210.227 174.188 210.253 173.863C210.266 173.705 210.31 173.551 210.383 173.411C210.456 173.27 210.556 173.146 210.678 173.044C210.8 172.943 210.941 172.867 211.093 172.822C211.244 172.776 211.404 172.761 211.561 172.777V172.777Z" fill="#B1B4C5"/>
<path fill-rule="evenodd" clip-rule="evenodd" d="M217.695 182.746L218.257 174.677C218.268 174.519 218.31 174.365 218.382 174.223C218.453 174.082 218.553 173.956 218.673 173.854C218.794 173.751 218.935 173.674 219.086 173.627C219.237 173.58 219.396 173.563 219.554 173.578C220.228 173.643 220.729 174.232 220.682 174.908L220.12 182.977C220.109 183.135 220.066 183.289 219.995 183.431C219.923 183.572 219.824 183.698 219.703 183.8C219.582 183.902 219.442 183.98 219.291 184.027C219.14 184.074 218.98 184.091 218.823 184.076C218.498 184.045 218.199 183.889 217.988 183.64C217.777 183.392 217.672 183.071 217.695 182.746V182.746Z" fill="#B1B4C5"/>
<path d="M177.482 198.1C177.727 198.392 177.818 198.693 177.757 199.006C177.696 199.313 177.517 199.591 177.219 199.841L176.19 200.704C176.175 200.717 176.157 200.724 176.137 200.725C176.117 200.721 176.101 200.711 176.088 200.696L173.481 197.589C173.468 197.573 173.463 197.557 173.464 197.54C173.466 197.518 173.475 197.5 173.49 197.487L174.451 196.681C174.779 196.406 175.095 196.266 175.399 196.261C175.701 196.254 175.976 196.399 176.225 196.696C176.48 196.999 176.546 197.317 176.423 197.65C176.415 197.672 176.422 197.683 176.442 197.681C176.84 197.608 177.187 197.748 177.482 198.1ZM174.573 197.526C174.557 197.539 174.556 197.553 174.569 197.569L175.175 198.29C175.187 198.306 175.202 198.307 175.217 198.294L175.566 198.001C175.689 197.898 175.757 197.783 175.771 197.657C175.785 197.53 175.742 197.407 175.641 197.288C175.538 197.165 175.424 197.1 175.296 197.091C175.173 197.081 175.048 197.128 174.922 197.233L174.573 197.526ZM176.721 199.303C176.844 199.2 176.909 199.085 176.918 198.958C176.926 198.825 176.876 198.693 176.765 198.561C176.654 198.43 176.533 198.357 176.401 198.342C176.269 198.322 176.142 198.364 176.019 198.466L175.633 198.79C175.618 198.803 175.617 198.817 175.63 198.833L176.293 199.623C176.306 199.639 176.32 199.64 176.335 199.627L176.721 199.303ZM178.314 194.294C178.326 194.309 178.332 194.328 178.33 194.35C178.328 194.367 178.32 194.382 178.305 194.395L177.073 195.429C177.058 195.441 177.056 195.456 177.069 195.471L177.671 196.188C177.684 196.203 177.698 196.204 177.713 196.192L178.481 195.547C178.496 195.535 178.513 195.53 178.533 195.535C178.553 195.534 178.569 195.541 178.582 195.556L178.956 196.002C178.969 196.018 178.975 196.036 178.973 196.059C178.971 196.076 178.963 196.091 178.947 196.104L178.18 196.748C178.164 196.761 178.163 196.775 178.176 196.79L178.797 197.53C178.81 197.545 178.824 197.547 178.839 197.534L180.071 196.5C180.086 196.487 180.104 196.483 180.123 196.488C180.143 196.487 180.16 196.494 180.172 196.509L180.547 196.955C180.559 196.97 180.565 196.989 180.563 197.012C180.561 197.028 180.553 197.043 180.538 197.056L178.69 198.607C178.675 198.619 178.657 198.626 178.637 198.628C178.618 198.623 178.601 198.613 178.589 198.598L175.981 195.491C175.969 195.475 175.963 195.459 175.964 195.442C175.966 195.42 175.975 195.402 175.99 195.389L177.838 193.839C177.853 193.826 177.871 193.822 177.89 193.826C177.91 193.825 177.927 193.832 177.939 193.848L178.314 194.294ZM182.719 195.226C182.685 195.254 182.651 195.257 182.616 195.234L182.132 194.872C182.119 194.863 182.106 194.863 182.094 194.873L181.234 195.594C181.222 195.605 181.22 195.617 181.227 195.632L181.499 196.171C181.516 196.21 181.509 196.242 181.478 196.267L180.922 196.734C180.882 196.767 180.85 196.76 180.826 196.713L179.042 192.907C179.025 192.869 179.034 192.835 179.068 192.807L179.734 192.248C179.768 192.219 179.802 192.217 179.837 192.24L183.275 194.657L183.295 194.672C183.319 194.699 183.313 194.727 183.28 194.755L182.719 195.226ZM180.892 194.981C180.897 194.993 180.905 194.999 180.916 195C180.925 194.998 180.932 194.994 180.938 194.989L181.545 194.48C181.551 194.475 181.556 194.468 181.559 194.46C181.56 194.449 181.555 194.44 181.545 194.433L180.109 193.367C180.096 193.357 180.086 193.355 180.08 193.36C180.074 193.365 180.074 193.375 180.081 193.39L180.892 194.981ZM182.634 189.814C182.649 189.802 182.667 189.797 182.686 189.802C182.706 189.801 182.723 189.808 182.735 189.823L183.113 190.274C183.126 190.289 183.132 190.308 183.13 190.331C183.128 190.347 183.12 190.362 183.105 190.375L182.406 190.961C182.391 190.974 182.389 190.988 182.402 191.004L184.566 193.582C184.579 193.598 184.584 193.616 184.582 193.639C184.581 193.656 184.572 193.671 184.557 193.684L184.019 194.135C184.004 194.148 183.986 194.155 183.966 194.156C183.947 194.151 183.931 194.141 183.918 194.126L181.754 191.548C181.741 191.532 181.727 191.531 181.712 191.544L181.036 192.111C181.021 192.124 181.003 192.131 180.983 192.132C180.964 192.127 180.948 192.117 180.935 192.102L180.557 191.651C180.544 191.636 180.538 191.62 180.54 191.603C180.542 191.581 180.55 191.563 180.566 191.55L182.634 189.814ZM186.736 191.918C186.525 192.095 186.309 192.214 186.088 192.274C185.864 192.331 185.651 192.33 185.449 192.269C185.248 192.203 185.072 192.082 184.923 191.904L184.823 191.784C184.81 191.769 184.804 191.753 184.806 191.736C184.808 191.713 184.817 191.696 184.832 191.683L185.36 191.239C185.376 191.227 185.393 191.222 185.413 191.227C185.433 191.226 185.449 191.233 185.462 191.248L185.535 191.336C185.625 191.443 185.741 191.5 185.882 191.506C186.021 191.51 186.158 191.455 186.293 191.342C186.412 191.242 186.477 191.135 186.487 191.023C186.5 190.907 186.466 190.802 186.386 190.707C186.327 190.637 186.257 190.594 186.176 190.578C186.093 190.56 185.996 190.56 185.887 190.578C185.778 190.592 185.616 190.623 185.402 190.672C185.141 190.735 184.918 190.775 184.735 190.793C184.552 190.811 184.366 190.792 184.178 190.736C183.99 190.679 183.821 190.562 183.672 190.385C183.523 190.207 183.434 190.018 183.407 189.816C183.379 189.61 183.413 189.407 183.507 189.208C183.598 189.005 183.742 188.822 183.938 188.658C184.143 188.485 184.359 188.372 184.585 188.318C184.809 188.261 185.024 188.266 185.231 188.332C185.439 188.398 185.619 188.524 185.774 188.707L185.851 188.799C185.864 188.815 185.869 188.834 185.867 188.856C185.866 188.873 185.857 188.888 185.842 188.901L185.313 189.344C185.298 189.357 185.28 189.364 185.26 189.365C185.241 189.361 185.225 189.351 185.212 189.335L185.142 189.253C185.05 189.142 184.934 189.083 184.796 189.073C184.658 189.064 184.523 189.115 184.391 189.225C184.281 189.318 184.218 189.42 184.202 189.532C184.187 189.639 184.222 189.743 184.307 189.844C184.366 189.914 184.436 189.96 184.516 189.982C184.597 190.003 184.696 190.006 184.814 189.991C184.929 189.972 185.097 189.936 185.317 189.881L185.46 189.855C185.72 189.804 185.93 189.774 186.09 189.766C186.25 189.751 186.41 189.771 186.57 189.825C186.73 189.879 186.876 189.984 187.007 190.14C187.241 190.419 187.332 190.721 187.281 191.045C187.23 191.365 187.049 191.655 186.736 191.918Z" fill="#B1B4C5"/>
<path d="M184.763 127.505L212.923 204.873C213.175 205.565 213.94 205.922 214.632 205.67L214.633 205.67C215.324 205.418 215.681 204.653 215.429 203.961L187.27 126.593C187.018 125.901 186.253 125.544 185.561 125.796L185.56 125.796C184.868 126.048 184.512 126.813 184.763 127.505Z" fill="#B1B4C5"/>
<path fill-rule="evenodd" clip-rule="evenodd" d="M181.102 133.011L184.649 125.743C184.946 125.134 185.673 124.874 186.291 125.155C186.435 125.22 186.564 125.314 186.671 125.431C186.779 125.548 186.861 125.685 186.915 125.834C186.968 125.983 186.991 126.142 186.982 126.3C186.974 126.458 186.933 126.613 186.864 126.755L183.317 134.024C183.174 134.316 182.922 134.542 182.615 134.652C182.309 134.761 181.971 134.747 181.675 134.612C181.531 134.546 181.401 134.452 181.294 134.335C181.187 134.218 181.104 134.081 181.051 133.932C180.997 133.783 180.974 133.625 180.983 133.466C180.992 133.308 181.032 133.153 181.102 133.011V133.011Z" fill="#B1B4C5"/>
<path fill-rule="evenodd" clip-rule="evenodd" d="M192.567 130.657L185.177 127.369C185.032 127.305 184.902 127.212 184.793 127.096C184.685 126.981 184.601 126.845 184.546 126.696C184.491 126.547 184.467 126.389 184.474 126.231C184.481 126.073 184.52 125.917 184.588 125.774C184.879 125.163 185.605 124.893 186.224 125.169L193.614 128.457C193.759 128.522 193.889 128.614 193.997 128.73C194.106 128.846 194.19 128.982 194.245 129.13C194.299 129.279 194.324 129.437 194.317 129.595C194.31 129.754 194.271 129.909 194.203 130.052C194.063 130.346 193.814 130.574 193.508 130.687C193.202 130.8 192.865 130.789 192.567 130.657V130.657Z" fill="#B1B4C5"/>
<path d="M192.899 172.755C193.256 172.625 193.571 172.643 193.844 172.807C194.112 172.97 194.312 173.233 194.445 173.598L194.904 174.861C194.911 174.879 194.912 174.898 194.906 174.918C194.895 174.934 194.88 174.946 194.861 174.953L191.05 176.34C191.031 176.347 191.014 176.347 190.999 176.34C190.978 176.33 190.964 176.316 190.958 176.297L190.529 175.119C190.382 174.717 190.359 174.372 190.459 174.084C190.555 173.798 190.785 173.589 191.15 173.456C191.522 173.321 191.843 173.368 192.114 173.597C192.132 173.612 192.144 173.609 192.15 173.59C192.217 173.191 192.467 172.913 192.899 172.755ZM191.365 175.293C191.372 175.312 191.384 175.318 191.403 175.311L192.288 174.989C192.307 174.982 192.313 174.969 192.306 174.951L192.15 174.522C192.096 174.372 192.011 174.268 191.897 174.212C191.783 174.156 191.653 174.154 191.506 174.208C191.356 174.262 191.255 174.348 191.204 174.465C191.151 174.577 191.153 174.711 191.209 174.865L191.365 175.293ZM193.769 173.882C193.714 173.732 193.629 173.631 193.512 173.58C193.391 173.526 193.249 173.529 193.087 173.587C192.926 173.646 192.815 173.735 192.757 173.855C192.693 173.971 192.688 174.105 192.743 174.255L192.915 174.729C192.922 174.748 192.935 174.754 192.954 174.747L193.924 174.394C193.942 174.387 193.948 174.374 193.941 174.356L193.769 173.882ZM189.606 170.672C189.625 170.666 189.645 170.667 189.665 170.677C189.681 170.684 189.692 170.697 189.699 170.715L190.249 172.227C190.255 172.245 190.268 172.251 190.287 172.244L191.167 171.924C191.185 171.917 191.191 171.905 191.185 171.886L190.842 170.944C190.835 170.925 190.837 170.908 190.848 170.891C190.854 170.872 190.866 170.859 190.885 170.852L191.432 170.653C191.451 170.646 191.47 170.647 191.491 170.657C191.506 170.664 191.517 170.677 191.524 170.696L191.867 171.638C191.874 171.656 191.886 171.662 191.905 171.655L192.813 171.325C192.832 171.318 192.838 171.305 192.831 171.287L192.281 169.776C192.274 169.757 192.276 169.739 192.287 169.722C192.293 169.703 192.305 169.69 192.324 169.683L192.871 169.484C192.89 169.477 192.909 169.479 192.93 169.488C192.945 169.496 192.956 169.509 192.963 169.527L193.788 171.794C193.795 171.813 193.795 171.832 193.79 171.851C193.779 171.867 193.764 171.879 193.745 171.886L189.934 173.273C189.915 173.28 189.898 173.28 189.882 173.273C189.862 173.263 189.848 173.249 189.841 173.23L189.016 170.964C189.01 170.945 189.012 170.927 189.023 170.91C189.028 170.891 189.041 170.878 189.059 170.872L189.606 170.672ZM191.989 166.852C192.004 166.893 191.995 166.926 191.962 166.951L191.456 167.282C191.443 167.291 191.439 167.303 191.444 167.318L191.828 168.373C191.833 168.388 191.844 168.394 191.861 168.393L192.46 168.321C192.502 168.319 192.53 168.336 192.543 168.374L192.792 169.056C192.809 169.105 192.792 169.133 192.739 169.139L188.552 169.514C188.511 169.516 188.482 169.497 188.467 169.455L188.17 168.638C188.155 168.596 188.164 168.563 188.197 168.538L191.645 166.134L191.666 166.12C191.699 166.108 191.724 166.122 191.739 166.164L191.989 166.852ZM191.134 168.485C191.147 168.484 191.156 168.479 191.16 168.469C191.161 168.46 191.16 168.452 191.158 168.444L190.887 167.7C190.884 167.692 190.88 167.686 190.873 167.679C190.863 167.675 190.853 167.676 190.843 167.684L189.349 168.668C189.336 168.677 189.33 168.686 189.333 168.693C189.336 168.701 189.345 168.704 189.362 168.702L191.134 168.485ZM186.875 165.081C186.868 165.062 186.87 165.044 186.881 165.027C186.887 165.008 186.899 164.995 186.918 164.988L187.471 164.787C187.489 164.78 187.509 164.782 187.53 164.791C187.545 164.798 187.556 164.811 187.563 164.83L187.875 165.687C187.882 165.706 187.895 165.712 187.913 165.705L191.076 164.554C191.095 164.547 191.115 164.548 191.135 164.558C191.151 164.565 191.162 164.578 191.169 164.597L191.409 165.257C191.416 165.275 191.416 165.294 191.41 165.314C191.399 165.33 191.384 165.342 191.366 165.349L188.203 166.5C188.184 166.507 188.178 166.52 188.185 166.539L188.486 167.367C188.493 167.386 188.494 167.405 188.488 167.424C188.477 167.441 188.462 167.453 188.443 167.46L187.891 167.661C187.872 167.668 187.855 167.667 187.84 167.66C187.819 167.651 187.805 167.637 187.799 167.618L186.875 165.081ZM190.254 161.945C190.349 162.204 190.387 162.448 190.367 162.677C190.345 162.906 190.27 163.106 190.145 163.275C190.014 163.442 189.839 163.565 189.621 163.644L189.475 163.697C189.456 163.704 189.439 163.704 189.424 163.697C189.403 163.687 189.389 163.673 189.383 163.654L189.147 163.006C189.14 162.987 189.142 162.969 189.153 162.953C189.158 162.934 189.171 162.921 189.19 162.914L189.297 162.875C189.428 162.827 189.521 162.738 189.576 162.607C189.627 162.478 189.622 162.331 189.562 162.165C189.509 162.019 189.431 161.921 189.328 161.874C189.224 161.822 189.114 161.817 188.998 161.86C188.911 161.891 188.847 161.942 188.804 162.013C188.758 162.085 188.725 162.176 188.705 162.285C188.681 162.392 188.655 162.555 188.628 162.773C188.597 163.04 188.559 163.262 188.513 163.441C188.467 163.619 188.386 163.787 188.269 163.945C188.152 164.102 187.984 164.221 187.766 164.3C187.548 164.38 187.34 164.398 187.141 164.355C186.937 164.31 186.758 164.209 186.603 164.053C186.445 163.898 186.322 163.7 186.234 163.459C186.142 163.208 186.11 162.966 186.136 162.735C186.159 162.506 186.237 162.305 186.37 162.133C186.504 161.961 186.683 161.834 186.909 161.752L187.021 161.711C187.04 161.704 187.06 161.705 187.08 161.715C187.096 161.722 187.107 161.735 187.114 161.754L187.35 162.402C187.356 162.421 187.357 162.44 187.351 162.459C187.34 162.476 187.325 162.488 187.307 162.494L187.205 162.531C187.07 162.581 186.974 162.669 186.918 162.795C186.862 162.922 186.864 163.066 186.922 163.228C186.972 163.363 187.046 163.458 187.146 163.51C187.241 163.561 187.351 163.564 187.475 163.519C187.561 163.487 187.628 163.437 187.676 163.369C187.723 163.3 187.76 163.208 187.786 163.093C187.808 162.978 187.831 162.808 187.856 162.582L187.88 162.439C187.921 162.177 187.965 161.97 188.011 161.817C188.053 161.661 188.126 161.517 188.231 161.385C188.336 161.253 188.485 161.153 188.676 161.083C189.018 160.958 189.333 160.976 189.621 161.135C189.904 161.292 190.115 161.562 190.254 161.945Z" fill="#B1B4C5"/>
<path d="M123.63 203.355L151.79 125.987C152.041 125.295 151.685 124.53 150.993 124.278L150.992 124.278C150.3 124.026 149.535 124.383 149.283 125.075L121.124 202.443C120.872 203.135 121.228 203.9 121.92 204.152L121.921 204.152C122.613 204.404 123.378 204.047 123.63 203.355Z" fill="#B1B4C5"/>
<path fill-rule="evenodd" clip-rule="evenodd" d="M129.974 201.491L122.585 204.779C121.966 205.054 121.241 204.786 120.949 204.174C120.881 204.031 120.842 203.876 120.835 203.717C120.828 203.559 120.853 203.401 120.908 203.252C120.963 203.104 121.047 202.968 121.155 202.852C121.264 202.737 121.394 202.644 121.539 202.58L128.928 199.292C129.226 199.159 129.563 199.148 129.869 199.261C130.175 199.374 130.424 199.602 130.564 199.896C130.632 200.04 130.671 200.195 130.678 200.353C130.685 200.511 130.66 200.669 130.605 200.818C130.55 200.967 130.466 201.103 130.358 201.218C130.249 201.334 130.119 201.427 129.974 201.491V201.491Z" fill="#B1B4C5"/>
<path fill-rule="evenodd" clip-rule="evenodd" d="M119.678 195.925L123.226 203.193C123.295 203.336 123.335 203.491 123.344 203.649C123.353 203.807 123.33 203.965 123.276 204.115C123.223 204.264 123.14 204.401 123.033 204.517C122.925 204.634 122.796 204.728 122.652 204.794C122.035 205.075 121.306 204.815 121.01 204.206L117.462 196.937C117.393 196.794 117.352 196.64 117.344 196.481C117.335 196.323 117.358 196.165 117.412 196.016C117.465 195.867 117.548 195.73 117.655 195.613C117.762 195.496 117.892 195.402 118.036 195.337C118.332 195.201 118.67 195.187 118.977 195.297C119.283 195.406 119.535 195.632 119.678 195.925V195.925Z" fill="#B1B4C5"/>
<path d="M147.51 160.641C147.153 160.511 146.923 160.296 146.82 159.994C146.719 159.698 146.735 159.367 146.868 159.003L147.328 157.74C147.334 157.721 147.346 157.706 147.363 157.695C147.382 157.69 147.401 157.69 147.42 157.697L151.231 159.084C151.25 159.091 151.263 159.102 151.27 159.117C151.28 159.138 151.281 159.158 151.274 159.176L150.845 160.355C150.699 160.757 150.495 161.036 150.234 161.192C149.977 161.35 149.666 161.362 149.301 161.229C148.929 161.094 148.713 160.851 148.653 160.502C148.648 160.479 148.638 160.473 148.621 160.484C148.313 160.746 147.942 160.799 147.51 160.641ZM150.317 159.684C150.324 159.665 150.318 159.652 150.299 159.645L149.414 159.323C149.395 159.316 149.382 159.322 149.376 159.341L149.22 159.769C149.165 159.92 149.163 160.053 149.214 160.17C149.266 160.286 149.364 160.371 149.511 160.425C149.661 160.479 149.794 160.478 149.908 160.422C150.021 160.37 150.105 160.266 150.161 160.112L150.317 159.684ZM147.568 159.219C147.513 159.37 147.514 159.502 147.571 159.616C147.629 159.735 147.739 159.824 147.901 159.883C148.063 159.942 148.204 159.945 148.326 159.891C148.45 159.843 148.539 159.743 148.594 159.593L148.767 159.119C148.773 159.1 148.767 159.088 148.749 159.081L147.779 158.728C147.76 158.721 147.747 158.727 147.74 158.746L147.568 159.219ZM148.694 164.354C148.675 164.347 148.661 164.333 148.651 164.313C148.644 164.297 148.644 164.28 148.651 164.261L149.201 162.75C149.208 162.732 149.202 162.719 149.183 162.712L148.303 162.392C148.285 162.385 148.272 162.391 148.265 162.41L147.922 163.351C147.915 163.37 147.902 163.382 147.883 163.388C147.866 163.399 147.849 163.401 147.83 163.394L147.283 163.195C147.264 163.188 147.25 163.175 147.24 163.154C147.233 163.139 147.233 163.122 147.24 163.103L147.583 162.161C147.59 162.143 147.584 162.13 147.565 162.123L146.657 161.793C146.638 161.786 146.625 161.792 146.619 161.811L146.069 163.322C146.062 163.34 146.049 163.353 146.03 163.358C146.013 163.369 145.995 163.371 145.976 163.365L145.429 163.166C145.411 163.159 145.396 163.145 145.387 163.125C145.38 163.109 145.38 163.092 145.386 163.073L146.211 160.807C146.218 160.788 146.23 160.773 146.247 160.762C146.266 160.756 146.285 160.757 146.304 160.764L150.115 162.151C150.134 162.158 150.147 162.169 150.154 162.184C150.164 162.205 150.165 162.224 150.158 162.243L149.333 164.51C149.326 164.529 149.313 164.541 149.294 164.547C149.277 164.558 149.26 164.56 149.241 164.553L148.694 164.354ZM144.413 165.749C144.428 165.708 144.456 165.688 144.498 165.69L145.097 165.762C145.114 165.764 145.125 165.757 145.13 165.742L145.514 164.688C145.519 164.673 145.515 164.66 145.502 164.651L144.996 164.32C144.963 164.295 144.953 164.264 144.967 164.227L145.215 163.544C145.233 163.496 145.264 163.486 145.309 163.515L148.756 165.919C148.79 165.944 148.799 165.977 148.784 166.018L148.486 166.836C148.471 166.877 148.443 166.897 148.401 166.894L144.215 166.52L144.19 166.517C144.157 166.505 144.147 166.478 144.162 166.437L144.413 165.749ZM146.117 165.048C146.107 165.04 146.097 165.038 146.087 165.043C146.08 165.049 146.076 165.056 146.073 165.064L145.802 165.808C145.799 165.815 145.799 165.823 145.8 165.832C145.804 165.843 145.813 165.848 145.826 165.848L147.602 166.054C147.619 166.056 147.628 166.053 147.631 166.046C147.634 166.038 147.628 166.03 147.615 166.021L146.117 165.048ZM147.192 170.393C147.185 170.412 147.172 170.424 147.153 170.43C147.136 170.441 147.118 170.443 147.1 170.436L146.547 170.235C146.528 170.228 146.514 170.214 146.504 170.194C146.497 170.178 146.497 170.161 146.504 170.143L146.816 169.286C146.823 169.267 146.817 169.254 146.798 169.247L143.635 168.096C143.616 168.089 143.602 168.075 143.592 168.055C143.585 168.04 143.585 168.022 143.592 168.004L143.832 167.344C143.839 167.325 143.851 167.31 143.867 167.299C143.887 167.294 143.905 167.294 143.924 167.301L147.087 168.452C147.106 168.459 147.119 168.453 147.126 168.434L147.427 167.605C147.434 167.587 147.446 167.572 147.463 167.561C147.482 167.555 147.501 167.556 147.52 167.562L148.072 167.764C148.091 167.77 148.104 167.781 148.111 167.797C148.121 167.817 148.122 167.837 148.115 167.856L147.192 170.393ZM142.588 170.623C142.682 170.363 142.81 170.152 142.971 169.99C143.136 169.828 143.321 169.723 143.526 169.675C143.734 169.631 143.947 169.649 144.165 169.728L144.311 169.781C144.33 169.788 144.343 169.799 144.35 169.815C144.36 169.835 144.361 169.855 144.354 169.874L144.118 170.522C144.111 170.541 144.098 170.553 144.079 170.559C144.063 170.57 144.045 170.572 144.026 170.565L143.919 170.526C143.787 170.478 143.659 170.487 143.533 170.552C143.411 170.618 143.32 170.734 143.259 170.899C143.206 171.046 143.203 171.17 143.251 171.273C143.298 171.379 143.379 171.454 143.496 171.496C143.582 171.527 143.664 171.53 143.742 171.503C143.824 171.477 143.907 171.429 143.993 171.358C144.081 171.292 144.205 171.184 144.366 171.034C144.561 170.849 144.733 170.703 144.883 170.596C145.033 170.489 145.203 170.413 145.394 170.367C145.585 170.322 145.79 170.339 146.008 170.418C146.226 170.497 146.397 170.617 146.522 170.778C146.649 170.943 146.721 171.136 146.74 171.355C146.761 171.576 146.728 171.806 146.641 172.047C146.549 172.299 146.419 172.505 146.25 172.664C146.085 172.826 145.896 172.929 145.684 172.975C145.471 173.022 145.252 173.004 145.026 172.921L144.914 172.88C144.895 172.874 144.881 172.86 144.871 172.839C144.864 172.824 144.864 172.807 144.871 172.788L145.107 172.14C145.113 172.121 145.125 172.106 145.142 172.095C145.161 172.089 145.18 172.09 145.199 172.097L145.3 172.134C145.436 172.183 145.566 172.177 145.69 172.116C145.814 172.055 145.906 171.943 145.965 171.782C146.014 171.646 146.017 171.526 145.975 171.421C145.934 171.322 145.852 171.249 145.728 171.204C145.642 171.172 145.558 171.168 145.478 171.189C145.398 171.211 145.31 171.258 145.216 171.33C145.125 171.404 144.998 171.519 144.835 171.677L144.724 171.771C144.524 171.945 144.357 172.076 144.223 172.163C144.092 172.256 143.943 172.319 143.778 172.352C143.612 172.386 143.434 172.367 143.242 172.298C142.9 172.173 142.67 171.957 142.552 171.65C142.436 171.349 142.448 171.006 142.588 170.623Z" fill="#B1B4C5"/>
<path d="M257.599 61.866C257.599 62.5627 257.372 63.0943 256.917 63.461C256.47 63.8203 255.89 64 255.179 64H252.715C252.678 64 252.645 63.989 252.616 63.967C252.594 63.9377 252.583 63.9047 252.583 63.868V56.432C252.583 56.3953 252.594 56.366 252.616 56.344C252.645 56.3147 252.678 56.3 252.715 56.3H255.014C255.799 56.3 256.407 56.476 256.84 56.828C257.273 57.1727 257.489 57.7007 257.489 58.412C257.489 59.138 257.207 59.6623 256.642 59.985C256.605 60.007 256.602 60.029 256.631 60.051C257.276 60.4177 257.599 61.0227 257.599 61.866ZM254.189 57.631C254.152 57.631 254.134 57.6493 254.134 57.686V59.413C254.134 59.4497 254.152 59.468 254.189 59.468H255.025C255.318 59.468 255.549 59.3873 255.718 59.226C255.887 59.0647 255.971 58.841 255.971 58.555C255.971 58.2617 255.887 58.0343 255.718 57.873C255.557 57.7117 255.326 57.631 255.025 57.631H254.189ZM255.113 62.658C255.406 62.658 255.634 62.5737 255.795 62.405C255.964 62.229 256.048 61.9833 256.048 61.668C256.048 61.3527 255.964 61.107 255.795 60.931C255.634 60.7477 255.406 60.656 255.113 60.656H254.189C254.152 60.656 254.134 60.6743 254.134 60.711V62.603C254.134 62.6397 254.152 62.658 254.189 62.658H255.113ZM263.252 57.499C263.252 57.5357 263.238 57.5687 263.208 57.598C263.186 57.62 263.157 57.631 263.12 57.631H260.172C260.136 57.631 260.117 57.6493 260.117 57.686V59.402C260.117 59.4387 260.136 59.457 260.172 59.457H262.009C262.046 59.457 262.075 59.4717 262.097 59.501C262.127 59.523 262.141 59.5523 262.141 59.589V60.656C262.141 60.6927 262.127 60.7257 262.097 60.755C262.075 60.777 262.046 60.788 262.009 60.788H260.172C260.136 60.788 260.117 60.8063 260.117 60.843V62.614C260.117 62.6507 260.136 62.669 260.172 62.669H263.12C263.157 62.669 263.186 62.6837 263.208 62.713C263.238 62.735 263.252 62.7643 263.252 62.801V63.868C263.252 63.9047 263.238 63.9377 263.208 63.967C263.186 63.989 263.157 64 263.12 64H258.698C258.662 64 258.629 63.989 258.599 63.967C258.577 63.9377 258.566 63.9047 258.566 63.868V56.432C258.566 56.3953 258.577 56.366 258.599 56.344C258.629 56.3147 258.662 56.3 258.698 56.3H263.12C263.157 56.3 263.186 56.3147 263.208 56.344C263.238 56.366 263.252 56.3953 263.252 56.432V57.499ZM268.341 64C268.26 64 268.209 63.9633 268.187 63.89L267.934 62.812C267.926 62.7827 267.908 62.768 267.879 62.768H265.822C265.792 62.768 265.774 62.7827 265.767 62.812L265.514 63.89C265.492 63.9633 265.444 64 265.371 64H264.04C263.944 64 263.908 63.9523 263.93 63.857L265.91 56.41C265.932 56.3367 265.983 56.3 266.064 56.3H267.659C267.739 56.3 267.791 56.3367 267.813 56.41L269.793 63.857L269.804 63.901C269.804 63.967 269.763 64 269.683 64H268.341ZM266.064 61.503C266.056 61.525 266.06 61.5433 266.075 61.558C266.089 61.5653 266.104 61.569 266.119 61.569H267.571C267.585 61.569 267.6 61.5653 267.615 61.558C267.629 61.5433 267.633 61.525 267.626 61.503L266.867 58.313C266.859 58.2837 266.848 58.269 266.834 58.269C266.819 58.269 266.808 58.2837 266.801 58.313L266.064 61.503ZM274.598 56.3C274.635 56.3 274.664 56.3147 274.686 56.344C274.716 56.366 274.73 56.3953 274.73 56.432V57.51C274.73 57.5467 274.716 57.5797 274.686 57.609C274.664 57.631 274.635 57.642 274.598 57.642H272.926C272.89 57.642 272.871 57.6603 272.871 57.697V63.868C272.871 63.9047 272.857 63.9377 272.827 63.967C272.805 63.989 272.776 64 272.739 64H271.452C271.416 64 271.383 63.989 271.353 63.967C271.331 63.9377 271.32 63.9047 271.32 63.868V57.697C271.32 57.6603 271.302 57.642 271.265 57.642H269.648C269.612 57.642 269.579 57.631 269.549 57.609C269.527 57.5797 269.516 57.5467 269.516 57.51V56.432C269.516 56.3953 269.527 56.366 269.549 56.344C269.579 56.3147 269.612 56.3 269.648 56.3H274.598ZM277.881 64.088C277.375 64.088 276.932 64 276.55 63.824C276.169 63.6407 275.872 63.3877 275.659 63.065C275.454 62.735 275.351 62.3573 275.351 61.932V61.646C275.351 61.6093 275.362 61.58 275.384 61.558C275.414 61.5287 275.447 61.514 275.483 61.514H276.748C276.785 61.514 276.814 61.5287 276.836 61.558C276.866 61.58 276.88 61.6093 276.88 61.646V61.855C276.88 62.1117 276.976 62.328 277.166 62.504C277.357 62.6727 277.614 62.757 277.936 62.757C278.222 62.757 278.439 62.6837 278.585 62.537C278.739 62.3903 278.816 62.2033 278.816 61.976C278.816 61.8073 278.769 61.6643 278.673 61.547C278.578 61.4223 278.442 61.3087 278.266 61.206C278.098 61.096 277.834 60.9493 277.474 60.766C277.034 60.546 276.675 60.3407 276.396 60.15C276.118 59.9593 275.879 59.7137 275.681 59.413C275.483 59.1123 275.384 58.7493 275.384 58.324C275.384 57.8987 275.483 57.5283 275.681 57.213C275.887 56.8903 276.173 56.6447 276.539 56.476C276.906 56.3 277.324 56.212 277.793 56.212C278.285 56.212 278.721 56.3073 279.102 56.498C279.484 56.6813 279.781 56.9417 279.993 57.279C280.206 57.6163 280.312 58.005 280.312 58.445V58.665C280.312 58.7017 280.298 58.7347 280.268 58.764C280.246 58.786 280.217 58.797 280.18 58.797H278.915C278.879 58.797 278.846 58.786 278.816 58.764C278.794 58.7347 278.783 58.7017 278.783 58.665V58.467C278.783 58.203 278.692 57.983 278.508 57.807C278.325 57.631 278.076 57.543 277.76 57.543C277.496 57.543 277.287 57.6127 277.133 57.752C276.987 57.884 276.913 58.071 276.913 58.313C276.913 58.4817 276.957 58.6283 277.045 58.753C277.133 58.8777 277.269 58.9987 277.452 59.116C277.636 59.226 277.914 59.3727 278.288 59.556L278.519 59.688C278.945 59.9227 279.275 60.128 279.509 60.304C279.751 60.4727 279.953 60.689 280.114 60.953C280.276 61.217 280.356 61.536 280.356 61.91C280.356 62.5773 280.129 63.109 279.674 63.505C279.227 63.8937 278.629 64.088 277.881 64.088Z" fill="#B1B4C5"/>
<path d="M60.599 61.866C60.599 62.5627 60.3717 63.0943 59.917 63.461C59.4697 63.8203 58.8903 64 58.179 64H55.715C55.6783 64 55.6453 63.989 55.616 63.967C55.594 63.9377 55.583 63.9047 55.583 63.868V56.432C55.583 56.3953 55.594 56.366 55.616 56.344C55.6453 56.3147 55.6783 56.3 55.715 56.3H58.014C58.7987 56.3 59.4073 56.476 59.84 56.828C60.2727 57.1727 60.489 57.7007 60.489 58.412C60.489 59.138 60.2067 59.6623 59.642 59.985C59.6053 60.007 59.6017 60.029 59.631 60.051C60.2763 60.4177 60.599 61.0227 60.599 61.866ZM57.189 57.631C57.1523 57.631 57.134 57.6493 57.134 57.686V59.413C57.134 59.4497 57.1523 59.468 57.189 59.468H58.025C58.3183 59.468 58.5493 59.3873 58.718 59.226C58.8867 59.0647 58.971 58.841 58.971 58.555C58.971 58.2617 58.8867 58.0343 58.718 57.873C58.5567 57.7117 58.3257 57.631 58.025 57.631H57.189ZM58.113 62.658C58.4063 62.658 58.6337 62.5737 58.795 62.405C58.9637 62.229 59.048 61.9833 59.048 61.668C59.048 61.3527 58.9637 61.107 58.795 60.931C58.6337 60.7477 58.4063 60.656 58.113 60.656H57.189C57.1523 60.656 57.134 60.6743 57.134 60.711V62.603C57.134 62.6397 57.1523 62.658 57.189 62.658H58.113ZM66.2524 57.499C66.2524 57.5357 66.2377 57.5687 66.2084 57.598C66.1864 57.62 66.1571 57.631 66.1204 57.631H63.1724C63.1357 57.631 63.1174 57.6493 63.1174 57.686V59.402C63.1174 59.4387 63.1357 59.457 63.1724 59.457H65.0094C65.0461 59.457 65.0754 59.4717 65.0974 59.501C65.1267 59.523 65.1414 59.5523 65.1414 59.589V60.656C65.1414 60.6927 65.1267 60.7257 65.0974 60.755C65.0754 60.777 65.0461 60.788 65.0094 60.788H63.1724C63.1357 60.788 63.1174 60.8063 63.1174 60.843V62.614C63.1174 62.6507 63.1357 62.669 63.1724 62.669H66.1204C66.1571 62.669 66.1864 62.6837 66.2084 62.713C66.2377 62.735 66.2524 62.7643 66.2524 62.801V63.868C66.2524 63.9047 66.2377 63.9377 66.2084 63.967C66.1864 63.989 66.1571 64 66.1204 64H61.6984C61.6617 64 61.6287 63.989 61.5994 63.967C61.5774 63.9377 61.5664 63.9047 61.5664 63.868V56.432C61.5664 56.3953 61.5774 56.366 61.5994 56.344C61.6287 56.3147 61.6617 56.3 61.6984 56.3H66.1204C66.1571 56.3 66.1864 56.3147 66.2084 56.344C66.2377 56.366 66.2524 56.3953 66.2524 56.432V57.499ZM71.3405 64C71.2598 64 71.2085 63.9633 71.1865 63.89L70.9335 62.812C70.9262 62.7827 70.9078 62.768 70.8785 62.768H68.8215C68.7922 62.768 68.7738 62.7827 68.7665 62.812L68.5135 63.89C68.4915 63.9633 68.4438 64 68.3705 64H67.0395C66.9442 64 66.9075 63.9523 66.9295 63.857L68.9095 56.41C68.9315 56.3367 68.9828 56.3 69.0635 56.3H70.6585C70.7392 56.3 70.7905 56.3367 70.8125 56.41L72.7925 63.857L72.8035 63.901C72.8035 63.967 72.7632 64 72.6825 64H71.3405ZM69.0635 61.503C69.0562 61.525 69.0598 61.5433 69.0745 61.558C69.0892 61.5653 69.1038 61.569 69.1185 61.569H70.5705C70.5852 61.569 70.5998 61.5653 70.6145 61.558C70.6292 61.5433 70.6328 61.525 70.6255 61.503L69.8665 58.313C69.8592 58.2837 69.8482 58.269 69.8335 58.269C69.8188 58.269 69.8078 58.2837 69.8005 58.313L69.0635 61.503ZM77.5985 56.3C77.6351 56.3 77.6645 56.3147 77.6865 56.344C77.7158 56.366 77.7305 56.3953 77.7305 56.432V57.51C77.7305 57.5467 77.7158 57.5797 77.6865 57.609C77.6645 57.631 77.6351 57.642 77.5985 57.642H75.9265C75.8898 57.642 75.8715 57.6603 75.8715 57.697V63.868C75.8715 63.9047 75.8568 63.9377 75.8275 63.967C75.8055 63.989 75.7761 64 75.7395 64H74.4525C74.4158 64 74.3828 63.989 74.3535 63.967C74.3315 63.9377 74.3205 63.9047 74.3205 63.868V57.697C74.3205 57.6603 74.3021 57.642 74.2655 57.642H72.6485C72.6118 57.642 72.5788 57.631 72.5495 57.609C72.5275 57.5797 72.5165 57.5467 72.5165 57.51V56.432C72.5165 56.3953 72.5275 56.366 72.5495 56.344C72.5788 56.3147 72.6118 56.3 72.6485 56.3H77.5985ZM80.8813 64.088C80.3753 64.088 79.9316 64 79.5503 63.824C79.1689 63.6407 78.8719 63.3877 78.6593 63.065C78.4539 62.735 78.3513 62.3573 78.3513 61.932V61.646C78.3513 61.6093 78.3623 61.58 78.3843 61.558C78.4136 61.5287 78.4466 61.514 78.4833 61.514H79.7483C79.7849 61.514 79.8143 61.5287 79.8363 61.558C79.8656 61.58 79.8803 61.6093 79.8803 61.646V61.855C79.8803 62.1117 79.9756 62.328 80.1663 62.504C80.3569 62.6727 80.6136 62.757 80.9363 62.757C81.2223 62.757 81.4386 62.6837 81.5853 62.537C81.7393 62.3903 81.8163 62.2033 81.8163 61.976C81.8163 61.8073 81.7686 61.6643 81.6733 61.547C81.5779 61.4223 81.4423 61.3087 81.2663 61.206C81.0976 61.096 80.8336 60.9493 80.4743 60.766C80.0343 60.546 79.6749 60.3407 79.3963 60.15C79.1176 59.9593 78.8793 59.7137 78.6813 59.413C78.4833 59.1123 78.3843 58.7493 78.3843 58.324C78.3843 57.8987 78.4833 57.5283 78.6813 57.213C78.8866 56.8903 79.1726 56.6447 79.5393 56.476C79.9059 56.3 80.3239 56.212 80.7933 56.212C81.2846 56.212 81.7209 56.3073 82.1023 56.498C82.4836 56.6813 82.7806 56.9417 82.9933 57.279C83.2059 57.6163 83.3123 58.005 83.3123 58.445V58.665C83.3123 58.7017 83.2976 58.7347 83.2683 58.764C83.2463 58.786 83.2169 58.797 83.1803 58.797H81.9153C81.8786 58.797 81.8456 58.786 81.8163 58.764C81.7943 58.7347 81.7833 58.7017 81.7833 58.665V58.467C81.7833 58.203 81.6916 57.983 81.5083 57.807C81.3249 57.631 81.0756 57.543 80.7603 57.543C80.4963 57.543 80.2873 57.6127 80.1333 57.752C79.9866 57.884 79.9133 58.071 79.9133 58.313C79.9133 58.4817 79.9573 58.6283 80.0453 58.753C80.1333 58.8777 80.2689 58.9987 80.4523 59.116C80.6356 59.226 80.9143 59.3727 81.2883 59.556L81.5193 59.688C81.9446 59.9227 82.2746 60.128 82.5093 60.304C82.7513 60.4727 82.9529 60.689 83.1143 60.953C83.2756 61.217 83.3563 61.536 83.3563 61.91C83.3563 62.5773 83.1289 63.109 82.6743 63.505C82.2269 63.8937 81.6293 64.088 80.8813 64.088Z" fill="#B1B4C5"/>
<path d="M310.599 222.866C310.599 223.563 310.372 224.094 309.917 224.461C309.47 224.82 308.89 225 308.179 225H305.715C305.678 225 305.645 224.989 305.616 224.967C305.594 224.938 305.583 224.905 305.583 224.868V217.432C305.583 217.395 305.594 217.366 305.616 217.344C305.645 217.315 305.678 217.3 305.715 217.3H308.014C308.799 217.3 309.407 217.476 309.84 217.828C310.273 218.173 310.489 218.701 310.489 219.412C310.489 220.138 310.207 220.662 309.642 220.985C309.605 221.007 309.602 221.029 309.631 221.051C310.276 221.418 310.599 222.023 310.599 222.866ZM307.189 218.631C307.152 218.631 307.134 218.649 307.134 218.686V220.413C307.134 220.45 307.152 220.468 307.189 220.468H308.025C308.318 220.468 308.549 220.387 308.718 220.226C308.887 220.065 308.971 219.841 308.971 219.555C308.971 219.262 308.887 219.034 308.718 218.873C308.557 218.712 308.326 218.631 308.025 218.631H307.189ZM308.113 223.658C308.406 223.658 308.634 223.574 308.795 223.405C308.964 223.229 309.048 222.983 309.048 222.668C309.048 222.353 308.964 222.107 308.795 221.931C308.634 221.748 308.406 221.656 308.113 221.656H307.189C307.152 221.656 307.134 221.674 307.134 221.711V223.603C307.134 223.64 307.152 223.658 307.189 223.658H308.113ZM316.252 218.499C316.252 218.536 316.238 218.569 316.208 218.598C316.186 218.62 316.157 218.631 316.12 218.631H313.172C313.136 218.631 313.117 218.649 313.117 218.686V220.402C313.117 220.439 313.136 220.457 313.172 220.457H315.009C315.046 220.457 315.075 220.472 315.097 220.501C315.127 220.523 315.141 220.552 315.141 220.589V221.656C315.141 221.693 315.127 221.726 315.097 221.755C315.075 221.777 315.046 221.788 315.009 221.788H313.172C313.136 221.788 313.117 221.806 313.117 221.843V223.614C313.117 223.651 313.136 223.669 313.172 223.669H316.12C316.157 223.669 316.186 223.684 316.208 223.713C316.238 223.735 316.252 223.764 316.252 223.801V224.868C316.252 224.905 316.238 224.938 316.208 224.967C316.186 224.989 316.157 225 316.12 225H311.698C311.662 225 311.629 224.989 311.599 224.967C311.577 224.938 311.566 224.905 311.566 224.868V217.432C311.566 217.395 311.577 217.366 311.599 217.344C311.629 217.315 311.662 217.3 311.698 217.3H316.12C316.157 217.3 316.186 217.315 316.208 217.344C316.238 217.366 316.252 217.395 316.252 217.432V218.499ZM321.341 225C321.26 225 321.209 224.963 321.187 224.89L320.934 223.812C320.926 223.783 320.908 223.768 320.879 223.768H318.822C318.792 223.768 318.774 223.783 318.767 223.812L318.514 224.89C318.492 224.963 318.444 225 318.371 225H317.04C316.944 225 316.908 224.952 316.93 224.857L318.91 217.41C318.932 217.337 318.983 217.3 319.064 217.3H320.659C320.739 217.3 320.791 217.337 320.813 217.41L322.793 224.857L322.804 224.901C322.804 224.967 322.763 225 322.683 225H321.341ZM319.064 222.503C319.056 222.525 319.06 222.543 319.075 222.558C319.089 222.565 319.104 222.569 319.119 222.569H320.571C320.585 222.569 320.6 222.565 320.615 222.558C320.629 222.543 320.633 222.525 320.626 222.503L319.867 219.313C319.859 219.284 319.848 219.269 319.834 219.269C319.819 219.269 319.808 219.284 319.801 219.313L319.064 222.503ZM327.598 217.3C327.635 217.3 327.664 217.315 327.686 217.344C327.716 217.366 327.73 217.395 327.73 217.432V218.51C327.73 218.547 327.716 218.58 327.686 218.609C327.664 218.631 327.635 218.642 327.598 218.642H325.926C325.89 218.642 325.871 218.66 325.871 218.697V224.868C325.871 224.905 325.857 224.938 325.827 224.967C325.805 224.989 325.776 225 325.739 225H324.452C324.416 225 324.383 224.989 324.353 224.967C324.331 224.938 324.32 224.905 324.32 224.868V218.697C324.32 218.66 324.302 218.642 324.265 218.642H322.648C322.612 218.642 322.579 218.631 322.549 218.609C322.527 218.58 322.516 218.547 322.516 218.51V217.432C322.516 217.395 322.527 217.366 322.549 217.344C322.579 217.315 322.612 217.3 322.648 217.3H327.598ZM330.881 225.088C330.375 225.088 329.932 225 329.55 224.824C329.169 224.641 328.872 224.388 328.659 224.065C328.454 223.735 328.351 223.357 328.351 222.932V222.646C328.351 222.609 328.362 222.58 328.384 222.558C328.414 222.529 328.447 222.514 328.483 222.514H329.748C329.785 222.514 329.814 222.529 329.836 222.558C329.866 222.58 329.88 222.609 329.88 222.646V222.855C329.88 223.112 329.976 223.328 330.166 223.504C330.357 223.673 330.614 223.757 330.936 223.757C331.222 223.757 331.439 223.684 331.585 223.537C331.739 223.39 331.816 223.203 331.816 222.976C331.816 222.807 331.769 222.664 331.673 222.547C331.578 222.422 331.442 222.309 331.266 222.206C331.098 222.096 330.834 221.949 330.474 221.766C330.034 221.546 329.675 221.341 329.396 221.15C329.118 220.959 328.879 220.714 328.681 220.413C328.483 220.112 328.384 219.749 328.384 219.324C328.384 218.899 328.483 218.528 328.681 218.213C328.887 217.89 329.173 217.645 329.539 217.476C329.906 217.3 330.324 217.212 330.793 217.212C331.285 217.212 331.721 217.307 332.102 217.498C332.484 217.681 332.781 217.942 332.993 218.279C333.206 218.616 333.312 219.005 333.312 219.445V219.665C333.312 219.702 333.298 219.735 333.268 219.764C333.246 219.786 333.217 219.797 333.18 219.797H331.915C331.879 219.797 331.846 219.786 331.816 219.764C331.794 219.735 331.783 219.702 331.783 219.665V219.467C331.783 219.203 331.692 218.983 331.508 218.807C331.325 218.631 331.076 218.543 330.76 218.543C330.496 218.543 330.287 218.613 330.133 218.752C329.987 218.884 329.913 219.071 329.913 219.313C329.913 219.482 329.957 219.628 330.045 219.753C330.133 219.878 330.269 219.999 330.452 220.116C330.636 220.226 330.914 220.373 331.288 220.556L331.519 220.688C331.945 220.923 332.275 221.128 332.509 221.304C332.751 221.473 332.953 221.689 333.114 221.953C333.276 222.217 333.356 222.536 333.356 222.91C333.356 223.577 333.129 224.109 332.674 224.505C332.227 224.894 331.629 225.088 330.881 225.088Z" fill="#B1B4C5"/>
<path d="M6.599 222.866C6.599 223.563 6.37167 224.094 5.917 224.461C5.46967 224.82 4.89033 225 4.179 225H1.715C1.67833 225 1.64533 224.989 1.616 224.967C1.594 224.938 1.583 224.905 1.583 224.868V217.432C1.583 217.395 1.594 217.366 1.616 217.344C1.64533 217.315 1.67833 217.3 1.715 217.3H4.014C4.79867 217.3 5.40733 217.476 5.84 217.828C6.27267 218.173 6.489 218.701 6.489 219.412C6.489 220.138 6.20667 220.662 5.642 220.985C5.60533 221.007 5.60167 221.029 5.631 221.051C6.27633 221.418 6.599 222.023 6.599 222.866ZM3.189 218.631C3.15233 218.631 3.134 218.649 3.134 218.686V220.413C3.134 220.45 3.15233 220.468 3.189 220.468H4.025C4.31833 220.468 4.54933 220.387 4.718 220.226C4.88667 220.065 4.971 219.841 4.971 219.555C4.971 219.262 4.88667 219.034 4.718 218.873C4.55667 218.712 4.32567 218.631 4.025 218.631H3.189ZM4.113 223.658C4.40633 223.658 4.63367 223.574 4.795 223.405C4.96367 223.229 5.048 222.983 5.048 222.668C5.048 222.353 4.96367 222.107 4.795 221.931C4.63367 221.748 4.40633 221.656 4.113 221.656H3.189C3.15233 221.656 3.134 221.674 3.134 221.711V223.603C3.134 223.64 3.15233 223.658 3.189 223.658H4.113ZM12.2524 218.499C12.2524 218.536 12.2377 218.569 12.2084 218.598C12.1864 218.62 12.1571 218.631 12.1204 218.631H9.1724C9.13573 218.631 9.1174 218.649 9.1174 218.686V220.402C9.1174 220.439 9.13573 220.457 9.1724 220.457H11.0094C11.0461 220.457 11.0754 220.472 11.0974 220.501C11.1267 220.523 11.1414 220.552 11.1414 220.589V221.656C11.1414 221.693 11.1267 221.726 11.0974 221.755C11.0754 221.777 11.0461 221.788 11.0094 221.788H9.1724C9.13573 221.788 9.1174 221.806 9.1174 221.843V223.614C9.1174 223.651 9.13573 223.669 9.1724 223.669H12.1204C12.1571 223.669 12.1864 223.684 12.2084 223.713C12.2377 223.735 12.2524 223.764 12.2524 223.801V224.868C12.2524 224.905 12.2377 224.938 12.2084 224.967C12.1864 224.989 12.1571 225 12.1204 225H7.6984C7.66173 225 7.62873 224.989 7.5994 224.967C7.5774 224.938 7.5664 224.905 7.5664 224.868V217.432C7.5664 217.395 7.5774 217.366 7.5994 217.344C7.62873 217.315 7.66173 217.3 7.6984 217.3H12.1204C12.1571 217.3 12.1864 217.315 12.2084 217.344C12.2377 217.366 12.2524 217.395 12.2524 217.432V218.499ZM17.3405 225C17.2598 225 17.2085 224.963 17.1865 224.89L16.9335 223.812C16.9262 223.783 16.9078 223.768 16.8785 223.768H14.8215C14.7922 223.768 14.7738 223.783 14.7665 223.812L14.5135 224.89C14.4915 224.963 14.4438 225 14.3705 225H13.0395C12.9442 225 12.9075 224.952 12.9295 224.857L14.9095 217.41C14.9315 217.337 14.9828 217.3 15.0635 217.3H16.6585C16.7392 217.3 16.7905 217.337 16.8125 217.41L18.7925 224.857L18.8035 224.901C18.8035 224.967 18.7632 225 18.6825 225H17.3405ZM15.0635 222.503C15.0562 222.525 15.0598 222.543 15.0745 222.558C15.0892 222.565 15.1038 222.569 15.1185 222.569H16.5705C16.5852 222.569 16.5998 222.565 16.6145 222.558C16.6292 222.543 16.6328 222.525 16.6255 222.503L15.8665 219.313C15.8592 219.284 15.8482 219.269 15.8335 219.269C15.8188 219.269 15.8078 219.284 15.8005 219.313L15.0635 222.503ZM23.5985 217.3C23.6351 217.3 23.6645 217.315 23.6865 217.344C23.7158 217.366 23.7305 217.395 23.7305 217.432V218.51C23.7305 218.547 23.7158 218.58 23.6865 218.609C23.6645 218.631 23.6351 218.642 23.5985 218.642H21.9265C21.8898 218.642 21.8715 218.66 21.8715 218.697V224.868C21.8715 224.905 21.8568 224.938 21.8275 224.967C21.8055 224.989 21.7761 225 21.7395 225H20.4525C20.4158 225 20.3828 224.989 20.3535 224.967C20.3315 224.938 20.3205 224.905 20.3205 224.868V218.697C20.3205 218.66 20.3021 218.642 20.2655 218.642H18.6485C18.6118 218.642 18.5788 218.631 18.5495 218.609C18.5275 218.58 18.5165 218.547 18.5165 218.51V217.432C18.5165 217.395 18.5275 217.366 18.5495 217.344C18.5788 217.315 18.6118 217.3 18.6485 217.3H23.5985ZM26.8813 225.088C26.3753 225.088 25.9316 225 25.5503 224.824C25.1689 224.641 24.8719 224.388 24.6593 224.065C24.4539 223.735 24.3513 223.357 24.3513 222.932V222.646C24.3513 222.609 24.3623 222.58 24.3843 222.558C24.4136 222.529 24.4466 222.514 24.4833 222.514H25.7483C25.7849 222.514 25.8143 222.529 25.8363 222.558C25.8656 222.58 25.8803 222.609 25.8803 222.646V222.855C25.8803 223.112 25.9756 223.328 26.1663 223.504C26.3569 223.673 26.6136 223.757 26.9363 223.757C27.2223 223.757 27.4386 223.684 27.5853 223.537C27.7393 223.39 27.8163 223.203 27.8163 222.976C27.8163 222.807 27.7686 222.664 27.6733 222.547C27.5779 222.422 27.4423 222.309 27.2663 222.206C27.0976 222.096 26.8336 221.949 26.4743 221.766C26.0343 221.546 25.6749 221.341 25.3963 221.15C25.1176 220.959 24.8793 220.714 24.6813 220.413C24.4833 220.112 24.3843 219.749 24.3843 219.324C24.3843 218.899 24.4833 218.528 24.6813 218.213C24.8866 217.89 25.1726 217.645 25.5393 217.476C25.9059 217.3 26.3239 217.212 26.7933 217.212C27.2846 217.212 27.7209 217.307 28.1023 217.498C28.4836 217.681 28.7806 217.942 28.9933 218.279C29.2059 218.616 29.3123 219.005 29.3123 219.445V219.665C29.3123 219.702 29.2976 219.735 29.2683 219.764C29.2463 219.786 29.2169 219.797 29.1803 219.797H27.9153C27.8786 219.797 27.8456 219.786 27.8163 219.764C27.7943 219.735 27.7833 219.702 27.7833 219.665V219.467C27.7833 219.203 27.6916 218.983 27.5083 218.807C27.3249 218.631 27.0756 218.543 26.7603 218.543C26.4963 218.543 26.2873 218.613 26.1333 218.752C25.9866 218.884 25.9133 219.071 25.9133 219.313C25.9133 219.482 25.9573 219.628 26.0453 219.753C26.1333 219.878 26.2689 219.999 26.4523 220.116C26.6356 220.226 26.9143 220.373 27.2883 220.556L27.5193 220.688C27.9446 220.923 28.2746 221.128 28.5093 221.304C28.7513 221.473 28.9529 221.689 29.1143 221.953C29.2756 222.217 29.3563 222.536 29.3563 222.91C29.3563 223.577 29.1289 224.109 28.6743 224.505C28.2269 224.894 27.6293 225.088 26.8813 225.088Z" fill="#B1B4C5"/>
<path d="M159.599 325.866C159.599 326.563 159.372 327.094 158.917 327.461C158.47 327.82 157.89 328 157.179 328H154.715C154.678 328 154.645 327.989 154.616 327.967C154.594 327.938 154.583 327.905 154.583 327.868V320.432C154.583 320.395 154.594 320.366 154.616 320.344C154.645 320.315 154.678 320.3 154.715 320.3H157.014C157.799 320.3 158.407 320.476 158.84 320.828C159.273 321.173 159.489 321.701 159.489 322.412C159.489 323.138 159.207 323.662 158.642 323.985C158.605 324.007 158.602 324.029 158.631 324.051C159.276 324.418 159.599 325.023 159.599 325.866ZM156.189 321.631C156.152 321.631 156.134 321.649 156.134 321.686V323.413C156.134 323.45 156.152 323.468 156.189 323.468H157.025C157.318 323.468 157.549 323.387 157.718 323.226C157.887 323.065 157.971 322.841 157.971 322.555C157.971 322.262 157.887 322.034 157.718 321.873C157.557 321.712 157.326 321.631 157.025 321.631H156.189ZM157.113 326.658C157.406 326.658 157.634 326.574 157.795 326.405C157.964 326.229 158.048 325.983 158.048 325.668C158.048 325.353 157.964 325.107 157.795 324.931C157.634 324.748 157.406 324.656 157.113 324.656H156.189C156.152 324.656 156.134 324.674 156.134 324.711V326.603C156.134 326.64 156.152 326.658 156.189 326.658H157.113ZM165.252 321.499C165.252 321.536 165.238 321.569 165.208 321.598C165.186 321.62 165.157 321.631 165.12 321.631H162.172C162.136 321.631 162.117 321.649 162.117 321.686V323.402C162.117 323.439 162.136 323.457 162.172 323.457H164.009C164.046 323.457 164.075 323.472 164.097 323.501C164.127 323.523 164.141 323.552 164.141 323.589V324.656C164.141 324.693 164.127 324.726 164.097 324.755C164.075 324.777 164.046 324.788 164.009 324.788H162.172C162.136 324.788 162.117 324.806 162.117 324.843V326.614C162.117 326.651 162.136 326.669 162.172 326.669H165.12C165.157 326.669 165.186 326.684 165.208 326.713C165.238 326.735 165.252 326.764 165.252 326.801V327.868C165.252 327.905 165.238 327.938 165.208 327.967C165.186 327.989 165.157 328 165.12 328H160.698C160.662 328 160.629 327.989 160.599 327.967C160.577 327.938 160.566 327.905 160.566 327.868V320.432C160.566 320.395 160.577 320.366 160.599 320.344C160.629 320.315 160.662 320.3 160.698 320.3H165.12C165.157 320.3 165.186 320.315 165.208 320.344C165.238 320.366 165.252 320.395 165.252 320.432V321.499ZM170.341 328C170.26 328 170.209 327.963 170.187 327.89L169.934 326.812C169.926 326.783 169.908 326.768 169.879 326.768H167.822C167.792 326.768 167.774 326.783 167.767 326.812L167.514 327.89C167.492 327.963 167.444 328 167.371 328H166.04C165.944 328 165.908 327.952 165.93 327.857L167.91 320.41C167.932 320.337 167.983 320.3 168.064 320.3H169.659C169.739 320.3 169.791 320.337 169.813 320.41L171.793 327.857L171.804 327.901C171.804 327.967 171.763 328 171.683 328H170.341ZM168.064 325.503C168.056 325.525 168.06 325.543 168.075 325.558C168.089 325.565 168.104 325.569 168.119 325.569H169.571C169.585 325.569 169.6 325.565 169.615 325.558C169.629 325.543 169.633 325.525 169.626 325.503L168.867 322.313C168.859 322.284 168.848 322.269 168.834 322.269C168.819 322.269 168.808 322.284 168.801 322.313L168.064 325.503ZM176.598 320.3C176.635 320.3 176.664 320.315 176.686 320.344C176.716 320.366 176.73 320.395 176.73 320.432V321.51C176.73 321.547 176.716 321.58 176.686 321.609C176.664 321.631 176.635 321.642 176.598 321.642H174.926C174.89 321.642 174.871 321.66 174.871 321.697V327.868C174.871 327.905 174.857 327.938 174.827 327.967C174.805 327.989 174.776 328 174.739 328H173.452C173.416 328 173.383 327.989 173.353 327.967C173.331 327.938 173.32 327.905 173.32 327.868V321.697C173.32 321.66 173.302 321.642 173.265 321.642H171.648C171.612 321.642 171.579 321.631 171.549 321.609C171.527 321.58 171.516 321.547 171.516 321.51V320.432C171.516 320.395 171.527 320.366 171.549 320.344C171.579 320.315 171.612 320.3 171.648 320.3H176.598ZM179.881 328.088C179.375 328.088 178.932 328 178.55 327.824C178.169 327.641 177.872 327.388 177.659 327.065C177.454 326.735 177.351 326.357 177.351 325.932V325.646C177.351 325.609 177.362 325.58 177.384 325.558C177.414 325.529 177.447 325.514 177.483 325.514H178.748C178.785 325.514 178.814 325.529 178.836 325.558C178.866 325.58 178.88 325.609 178.88 325.646V325.855C178.88 326.112 178.976 326.328 179.166 326.504C179.357 326.673 179.614 326.757 179.936 326.757C180.222 326.757 180.439 326.684 180.585 326.537C180.739 326.39 180.816 326.203 180.816 325.976C180.816 325.807 180.769 325.664 180.673 325.547C180.578 325.422 180.442 325.309 180.266 325.206C180.098 325.096 179.834 324.949 179.474 324.766C179.034 324.546 178.675 324.341 178.396 324.15C178.118 323.959 177.879 323.714 177.681 323.413C177.483 323.112 177.384 322.749 177.384 322.324C177.384 321.899 177.483 321.528 177.681 321.213C177.887 320.89 178.173 320.645 178.539 320.476C178.906 320.3 179.324 320.212 179.793 320.212C180.285 320.212 180.721 320.307 181.102 320.498C181.484 320.681 181.781 320.942 181.993 321.279C182.206 321.616 182.312 322.005 182.312 322.445V322.665C182.312 322.702 182.298 322.735 182.268 322.764C182.246 322.786 182.217 322.797 182.18 322.797H180.915C180.879 322.797 180.846 322.786 180.816 322.764C180.794 322.735 180.783 322.702 180.783 322.665V322.467C180.783 322.203 180.692 321.983 180.508 321.807C180.325 321.631 180.076 321.543 179.76 321.543C179.496 321.543 179.287 321.613 179.133 321.752C178.987 321.884 178.913 322.071 178.913 322.313C178.913 322.482 178.957 322.628 179.045 322.753C179.133 322.878 179.269 322.999 179.452 323.116C179.636 323.226 179.914 323.373 180.288 323.556L180.519 323.688C180.945 323.923 181.275 324.128 181.509 324.304C181.751 324.473 181.953 324.689 182.114 324.953C182.276 325.217 182.356 325.536 182.356 325.91C182.356 326.577 182.129 327.109 181.674 327.505C181.227 327.894 180.629 328.088 179.881 328.088Z" fill="#B1B4C5"/>
<defs>
<linearGradient id="paint0_linear_1286_78" x1="284.5" y1="92" x2="284.5" y2="192.344" gradientUnits="userSpaceOnUse">
<stop stop-color="white" stop-opacity="0.097"/>
<stop offset="1" stop-color="white" stop-opacity="0"/>
</linearGradient>
<linearGradient id="paint1_linear_1286_78" x1="51.5" y1="92" x2="51.5" y2="192.344" gradientUnits="userSpaceOnUse">
<stop stop-color="white" stop-opacity="0.097"/>
<stop offset="1" stop-color="white" stop-opacity="0"/>
</linearGradient>
<linearGradient id="paint2_linear_1286_78" x1="168.5" y1="0" x2="168.5" y2="100.344" gradientUnits="userSpaceOnUse">
<stop stop-color="white" stop-opacity="0.097"/>
<stop offset="1" stop-color="white" stop-opacity="0"/>
</linearGradient>
<linearGradient id="paint3_linear_1286_78" x1="238.5" y1="225" x2="238.5" y2="325.344" gradientUnits="userSpaceOnUse">
<stop stop-color="white" stop-opacity="0.097"/>
<stop offset="1" stop-color="white" stop-opacity="0"/>
</linearGradient>
<linearGradient id="paint4_linear_1286_78" x1="97.5" y1="225" x2="97.5" y2="325.344" gradientUnits="userSpaceOnUse">
<stop stop-color="white" stop-opacity="0.097"/>
<stop offset="1" stop-color="white" stop-opacity="0"/>
</linearGradient>
</defs>
</svg>
